<svg width="40" height="40" viewBox="0 0 40 40" fill="none" xmlns="http://www.w3.org/2000/svg">
<g opacity="0.2" clip-path="url(#clip0_1716_6702)">
<path d="M20 39.4141C30.7221 39.4141 39.4141 30.7221 39.4141 20C39.4141 9.27791 30.7221 0.585938 20 0.585938C9.27791 0.585938 0.585938 9.27791 0.585938 20C0.585938 30.7221 9.27791 39.4141 20 39.4141Z" fill="#EEBF00"/>
<path d="M20 32.9579C27.1564 32.9579 32.9578 27.1565 32.9578 20C32.9578 12.8436 27.1564 7.04224 20 7.04224C12.8436 7.04224 7.04218 12.8436 7.04218 20C7.04218 27.1565 12.8436 32.9579 20 32.9579Z" fill="#FED322"/>
<path d="M20 30.2249C25.6471 30.2249 30.225 25.647 30.225 19.9999C30.225 14.3528 25.6471 9.7749 20 9.7749C14.3529 9.7749 9.77502 14.3528 9.77502 19.9999C9.77502 25.647 14.3529 30.2249 20 30.2249Z" fill="#C6C5CB"/>
<path d="M20 28.6593C24.7825 28.6593 28.6594 24.7824 28.6594 20C28.6594 15.2175 24.7825 11.3406 20 11.3406C15.2176 11.3406 11.3406 15.2175 11.3406 20C11.3406 24.7824 15.2176 28.6593 20 28.6593Z" fill="#D8D8DA"/>
<path d="M34.4601 20.0001H37.5304C37.5304 17.6305 37.0593 15.3713 36.2072 13.3096L33.3687 14.4814C34.0715 16.182 34.4601 18.0455 34.4601 20.0001Z" fill="#FF5023"/>
<path d="M9.77526 30.2249L7.60425 32.3959C9.21409 34.0057 11.136 35.3031 13.2708 36.1913L14.4494 33.3556C12.6884 32.6229 11.1031 31.5527 9.77526 30.2249Z" fill="#FF5023"/>
<path d="M6.63148 25.5188L3.79297 26.6906C4.68164 28.8409 5.98469 30.7763 7.60422 32.3958L9.77523 30.2248C8.4393 28.889 7.36445 27.2925 6.63148 25.5188Z" fill="#65C27C"/>
<path d="M14.4493 33.3557L13.2707 36.1915C15.3429 37.0537 17.6156 37.5306 19.9999 37.5306V34.4602C18.0332 34.4602 16.1585 34.0669 14.4493 33.3557Z" fill="#65C27C"/>
<path d="M20 34.4601V37.5304C22.3696 37.5304 24.6288 37.0593 26.6905 36.2072L25.5188 33.3687C23.8181 34.0715 21.9545 34.4601 20 34.4601Z" fill="#FF5023"/>
<path d="M33.3556 25.5508C32.6228 27.3117 31.5527 28.897 30.2249 30.2249L32.3959 32.3959C34.0057 30.7861 35.3031 28.8642 36.1913 26.7294L33.3556 25.5508Z" fill="#FF5023"/>
<path d="M5.53992 20H2.4696C2.4696 22.3696 2.94078 24.6288 3.79289 26.6905L6.6314 25.5188C5.92859 23.8181 5.53992 21.9545 5.53992 20Z" fill="#FF5023"/>
<path d="M25.5188 33.3686L26.6906 36.2071C28.8409 35.3184 30.7763 34.0154 32.3958 32.3959L30.2248 30.2249C28.889 31.5608 27.2924 32.6356 25.5188 33.3686Z" fill="#65C27C"/>
<path d="M14.4812 6.63148L13.3094 3.79297C11.1592 4.68164 9.22372 5.98469 7.60419 7.60422L9.7752 9.77523C11.1111 8.4393 12.7075 7.36445 14.4812 6.63148Z" fill="#65C27C"/>
<path d="M6.64443 14.4493L3.80865 13.2708C2.94654 15.3429 2.46967 17.6157 2.46967 20H5.53998C5.5399 18.0333 5.93326 16.1586 6.64443 14.4493Z" fill="#65C27C"/>
<path d="M25.5507 6.64449L26.7293 3.80871C24.6571 2.9466 22.3844 2.46973 20 2.46973V5.54004C21.9668 5.53996 23.8415 5.93332 25.5507 6.64449Z" fill="#65C27C"/>
<path d="M33.3685 14.4813L36.207 13.3095C35.3183 11.1592 34.0153 9.22378 32.3957 7.60425L30.2247 9.77526C31.5607 11.1111 32.6355 12.7075 33.3685 14.4813Z" fill="#65C27C"/>
<path d="M30.2248 9.77532L32.3958 7.60431C30.786 5.99446 28.8641 4.6972 26.7293 3.80884L25.5507 6.64462C27.3116 7.37728 28.8969 8.44743 30.2248 9.77532Z" fill="#FF5023"/>
<path d="M9.77522 9.77534L7.60412 7.60425C5.99428 9.21409 4.69694 11.136 3.80865 13.2708L6.64444 14.4494C7.37717 12.6885 8.44733 11.1032 9.77522 9.77534Z" fill="#FF5023"/>
<path d="M20 5.54004V2.46973C17.6304 2.46973 15.3712 2.9409 13.3094 3.79301L14.4812 6.63152C16.1819 5.92871 18.0455 5.54004 20 5.54004Z" fill="#FF5023"/>
<path d="M33.3555 25.5507L36.1913 26.7293C37.0535 24.6571 37.5304 22.3844 37.5304 20H34.4601C34.4601 21.9667 34.0667 23.8415 33.3555 25.5507Z" fill="#65C27C"/>
<path d="M16.3266 17.8637C17.1755 17.8637 17.8637 17.1755 17.8637 16.3265C17.8637 15.4775 17.1755 14.7893 16.3266 14.7893C15.4776 14.7893 14.7894 15.4775 14.7894 16.3265C14.7894 17.1755 15.4776 17.8637 16.3266 17.8637Z" fill="#DDB201"/>
<path d="M23.6734 17.8637C24.5224 17.8637 25.2106 17.1755 25.2106 16.3265C25.2106 15.4775 24.5224 14.7893 23.6734 14.7893C22.8245 14.7893 22.1362 15.4775 22.1362 16.3265C22.1362 17.1755 22.8245 17.8637 23.6734 17.8637Z" fill="#DDB201"/>
<path d="M16.3266 25.2106C17.1755 25.2106 17.8637 24.5224 17.8637 23.6734C17.8637 22.8245 17.1755 22.1362 16.3266 22.1362C15.4776 22.1362 14.7894 22.8245 14.7894 23.6734C14.7894 24.5224 15.4776 25.2106 16.3266 25.2106Z" fill="#DDB201"/>
<path d="M23.6734 25.2106C24.5224 25.2106 25.2106 24.5224 25.2106 23.6734C25.2106 22.8245 24.5224 22.1362 23.6734 22.1362C22.8245 22.1362 22.1362 22.8245 22.1362 23.6734C22.1362 24.5224 22.8245 25.2106 23.6734 25.2106Z" fill="#DDB201"/>
<path d="M38.106 19.4142C38.0431 17.4243 37.6595 15.4843 36.9627 13.6315L36.9725 13.6275L36.7486 13.0857L36.5249 12.5445L36.5152 12.5485C35.6937 10.7278 34.5872 9.07152 33.2171 7.61168L33.2245 7.60434L32.8102 7.19004L32.3958 6.77574L32.3885 6.78309C30.9391 5.42285 29.296 4.3223 27.491 3.50262L27.4951 3.49285L26.9543 3.26785L26.4132 3.04262L26.4091 3.05246C24.5444 2.34613 22.5907 1.95754 20.5859 1.89418V1.88379H20H19.4141V1.89418C17.4242 1.95707 15.4842 2.34066 13.6314 3.03738L13.6274 3.02754L13.0857 3.25145L12.5443 3.47512L12.5483 3.48488C10.7278 4.30629 9.07144 5.41277 7.61144 6.78293L7.60409 6.77559L7.18972 7.18988L6.77542 7.60418L6.78276 7.61152C5.42261 9.06082 4.32206 10.7039 3.50237 12.5089L3.49261 12.5049L3.26761 13.0456L3.04245 13.5868L3.05222 13.5908C2.34589 15.4556 1.9573 17.4092 1.89394 19.414H1.88354V20V20.5859H1.89394C1.95683 22.5757 2.34042 24.5158 3.03722 26.3686L3.02745 26.3726L3.25128 26.9143L3.47503 27.4556L3.48472 27.4516C4.3062 29.2722 5.41269 30.9286 6.78276 32.3884L6.77542 32.3957L7.18972 32.81L7.60409 33.2243L7.61144 33.217C9.06081 34.5772 10.7039 35.6778 12.5089 36.4975L12.5048 36.5072L13.0456 36.7322L13.5867 36.9574L13.5908 36.9476C15.4555 37.6539 17.4092 38.0425 19.414 38.1059V38.1163H20H20.5859V38.1059C22.5757 38.043 24.5157 37.6594 26.3685 36.9627L26.3726 36.9725L26.9143 36.7486L27.4557 36.525L27.4517 36.5152C29.2722 35.6938 30.9285 34.5873 32.3885 33.2171L32.3958 33.2245L32.8102 32.8102L33.2245 32.3959L33.2171 32.3886C34.5773 30.9393 35.6778 29.2962 36.4975 27.4911L36.5073 27.4952L36.7323 26.9545L36.9575 26.4133L36.9477 26.4093C37.654 24.5445 38.0426 22.5908 38.106 20.5861H38.1164V20.0001V19.4142H38.106ZM32.814 25.3268C32.1139 27.0091 31.1035 28.5177 29.8105 29.8106L29.8074 29.8137C28.5069 31.1133 26.9888 32.1271 25.295 32.8271L25.2924 32.8282C23.6119 33.5223 21.8313 33.8743 20 33.8743C18.156 33.8743 16.3642 33.5178 14.6744 32.8146C12.9917 32.1144 11.4827 31.1037 10.1896 29.8106C8.88854 28.5096 7.87362 26.9903 7.17308 25.2951C6.47823 23.614 6.12589 21.8325 6.12589 20.0001C6.12589 18.1561 6.48237 16.3643 7.1855 14.6746L7.18597 14.6734C7.88604 12.9911 8.89651 11.4825 10.1895 10.1896L10.1926 10.1865C11.4931 8.88691 13.0112 7.87309 14.705 7.17309L14.7076 7.17199C16.3881 6.47793 18.1687 6.12598 20 6.12598C21.844 6.12598 23.6357 6.48246 25.3256 7.18559C27.0084 7.88582 28.5173 8.89652 29.8104 10.1896C31.1114 11.4907 32.1264 13.01 32.8269 14.7051C33.5217 16.3862 33.874 18.1677 33.874 20.0001C33.874 21.8442 33.5175 23.636 32.8144 25.3257L32.814 25.3268ZM34.1235 14.8036L35.88 14.0785C36.5188 15.7887 36.8725 17.5786 36.9346 19.4142H35.0349C34.9746 17.8295 34.6689 16.2834 34.1235 14.8036ZM35.4324 12.9954L34.6662 13.3118L33.676 13.7205C33.0119 12.2739 32.1299 10.9536 31.0457 9.78324L32.3889 8.43996C33.65 9.78957 34.6709 11.3176 35.4324 12.9954ZM30.2169 8.95457C29.0554 7.87855 27.746 7.00144 26.3123 6.33902L27.0416 4.58426C28.7048 5.34402 30.2205 6.35941 31.5603 7.61137L30.2169 8.95457ZM25.9596 4.1341L25.425 5.42035L25.2303 5.88894C23.7404 5.33582 22.183 5.02605 20.586 4.96527V3.06559C22.4355 3.12809 24.2383 3.48652 25.9596 4.1341ZM19.4141 3.06559V4.9652C17.8295 5.02551 16.2834 5.33121 14.8035 5.87668L14.0784 4.12012C15.7885 3.48145 17.5785 3.12762 19.4141 3.06559ZM12.9953 4.5677L13.7204 6.32418C12.2739 6.98824 10.9535 7.87035 9.78315 8.95457L8.43987 7.61129C9.78956 6.35012 11.3175 5.32918 12.9953 4.5677ZM7.6112 8.43996L8.9544 9.78324C7.87839 10.9449 7.00128 12.2542 6.33894 13.6879L4.58409 12.9586C5.34394 11.2954 6.35925 9.77965 7.6112 8.43996ZM4.13401 14.0406L5.88886 14.7699C5.33573 16.2596 5.02597 17.8171 4.96519 19.4142H3.06542C3.12792 17.5646 3.48644 15.7618 4.13401 14.0406ZM4.96519 20.5861C5.0255 22.1707 5.3312 23.7168 5.87659 25.1967L4.12011 25.9218C3.48128 24.2115 3.12753 22.4217 3.0655 20.5861H4.96519ZM4.56761 27.0048L5.33386 26.6885L6.32409 26.2797C6.98815 27.7263 7.87019 29.0467 8.9544 30.217L7.6112 31.5603C6.35003 30.2107 5.32917 28.6826 4.56761 27.0048ZM9.78315 31.0457C10.9447 32.1217 12.2541 32.9988 13.6878 33.6612L12.9585 35.416C11.2953 34.6562 9.77964 33.6408 8.43979 32.3889L9.78315 31.0457ZM14.0405 35.8661L14.7199 34.2314L14.7698 34.1114C16.2596 34.6645 17.8171 34.9743 19.4141 35.035V36.9346C17.5646 36.8721 15.7617 36.5137 14.0405 35.8661ZM20.586 36.9346V35.035C22.1706 34.9747 23.7167 34.669 25.1966 34.1236L25.9217 35.8801C24.2116 36.5188 22.4215 36.8726 20.586 36.9346ZM27.0047 35.4325L26.2796 33.6761C27.7262 33.012 29.0465 32.1299 30.2169 31.0457L31.5602 32.3889C30.2105 33.6501 28.6825 34.6711 27.0047 35.4325ZM32.3889 31.5603L31.0457 30.217C32.1217 29.0553 32.9988 27.7461 33.6611 26.3123L35.416 27.0416C34.6561 28.7048 33.6408 30.2206 32.3889 31.5603ZM35.866 25.9596L34.1112 25.2303C34.6643 23.7406 34.9741 22.1832 35.0349 20.5861H36.9346C36.8721 22.4356 36.5136 24.2384 35.866 25.9596Z" fill="black"/>
<path d="M34.1422 5.85781C30.3647 2.08039 25.3422 0 20 0C14.6578 0 9.63531 2.08039 5.85781 5.85781C2.08039 9.63539 0 14.6578 0 20C0 25.3422 2.08039 30.3646 5.85781 34.1422C9.63531 37.9196 14.6578 40 20 40C25.3422 40 30.3647 37.9196 34.1422 34.1422C37.9196 30.3646 40 25.3422 40 20C40 14.6578 37.9196 9.63539 34.1422 5.85781ZM20 38.8281C9.61812 38.8281 1.17188 30.3819 1.17188 20C1.17188 9.61812 9.61812 1.17188 20 1.17188C30.3819 1.17188 38.8281 9.61812 38.8281 20C38.8281 30.3819 30.3819 38.8281 20 38.8281Z" fill="black"/>
<path d="M20 9.18921C14.0389 9.18921 9.18921 14.0389 9.18921 19.9999C9.18921 25.9609 14.0389 30.8106 20 30.8106C25.9611 30.8106 30.8108 25.961 30.8108 19.9999C30.8108 14.0388 25.9611 9.18921 20 9.18921ZM20 29.6387C14.6851 29.6387 10.3611 25.3148 10.3611 19.9999C10.3611 14.6851 14.6851 10.3611 20 10.3611C25.3149 10.3611 29.6389 14.685 29.6389 19.9999C29.6389 25.3148 25.3149 29.6387 20 29.6387Z" fill="black"/>
<path d="M22.6451 18.1837C22.9499 18.3532 23.3003 18.45 23.6732 18.45C24.8438 18.45 25.7963 17.4976 25.7963 16.3269C25.7963 15.1563 24.8439 14.2039 23.6732 14.2039C22.5025 14.2039 21.5501 15.1564 21.5501 16.327C21.5501 16.6998 21.647 17.0503 21.8164 17.355L20 19.1714L18.1836 17.355C18.3531 17.0502 18.45 16.6997 18.45 16.327C18.45 15.1564 17.4976 14.2039 16.3269 14.2039C15.1562 14.2039 14.2039 15.1564 14.2039 16.327C14.2039 17.4977 15.1563 18.4501 16.327 18.4501C16.6997 18.4501 17.0502 18.3532 17.355 18.1838L19.1714 20.0002L17.355 21.8166C17.0503 21.6471 16.6998 21.5503 16.327 21.5503C15.1564 21.5503 14.2039 22.5027 14.2039 23.6734C14.2039 24.844 15.1563 25.7964 16.327 25.7964C17.4977 25.7964 18.45 24.844 18.45 23.6734C18.45 23.3006 18.3532 22.9501 18.1837 22.6453L20.0001 20.8289L21.8165 22.6453C21.6471 22.9502 21.5502 23.3007 21.5502 23.6734C21.5502 24.844 22.5025 25.7964 23.6732 25.7964C24.8439 25.7964 25.7964 24.844 25.7964 23.6734C25.7964 22.5027 24.8439 21.5503 23.6732 21.5503C23.3005 21.5503 22.95 21.6471 22.6452 21.8166L20.8287 20.0001L22.6451 18.1837ZM23.6732 15.3758C24.1977 15.3758 24.6244 15.8025 24.6244 16.327C24.6244 16.8515 24.1977 17.2782 23.6732 17.2782C23.1487 17.2782 22.722 16.8515 22.722 16.327C22.722 15.8025 23.1487 15.3758 23.6732 15.3758ZM15.3757 16.327C15.3757 15.8025 15.8025 15.3758 16.327 15.3758C16.8514 15.3758 17.2782 15.8025 17.2782 16.327C17.2782 16.8515 16.8514 17.2782 16.327 17.2782C15.8025 17.2782 15.3757 16.8515 15.3757 16.327ZM16.3269 24.6244C15.8024 24.6244 15.3757 24.1977 15.3757 23.6732C15.3757 23.1487 15.8024 22.722 16.3269 22.722C16.8514 22.722 17.2781 23.1487 17.2781 23.6732C17.2781 24.1977 16.8514 24.6244 16.3269 24.6244ZM24.6243 23.6732C24.6243 24.1977 24.1976 24.6244 23.6731 24.6244C23.1486 24.6244 22.7219 24.1977 22.7219 23.6732C22.7219 23.1487 23.1486 22.722 23.6731 22.722C24.1976 22.722 24.6243 23.1487 24.6243 23.6732Z" fill="black"/>
</g>
<defs>
<clipPath id="clip0_1716_6702">
<rect width="40" height="40" fill="white"/>
</clipPath>
</defs>
</svg>
