<svg width="49" height="48" viewBox="0 0 49 48" fill="none" xmlns="http://www.w3.org/2000/svg">
<circle cx="25" cy="24" r="24" fill="#B63D3D"/>
<path d="M10.7925 21.4041V18.5774H15.7169V31.5552H12.5525V21.4041H10.7925ZM19.9299 24.5863C18.8158 23.9937 18.2587 23.0633 18.2587 21.7952C18.2587 21.1552 18.4247 20.5744 18.7565 20.053C19.0884 19.5196 19.5921 19.0989 20.2676 18.7907C20.9432 18.4707 21.7728 18.3107 22.7565 18.3107C23.7402 18.3107 24.5639 18.4707 25.2276 18.7907C25.9032 19.0989 26.4069 19.5196 26.7388 20.053C27.0706 20.5744 27.2365 21.1552 27.2365 21.7952C27.2365 22.4352 27.0825 22.9922 26.7743 23.4663C26.478 23.9404 26.075 24.3137 25.5654 24.5863C26.2054 24.8944 26.6973 25.3211 27.041 25.8663C27.3847 26.3996 27.5565 27.0278 27.5565 27.7507C27.5565 28.5922 27.3432 29.3211 26.9165 29.9374C26.4899 30.5418 25.9091 31.0041 25.1743 31.3241C24.4513 31.6441 23.6454 31.8041 22.7565 31.8041C21.8676 31.8041 21.0558 31.6441 20.321 31.3241C19.598 31.0041 19.0232 30.5418 18.5965 29.9374C18.1699 29.3211 17.9565 28.5922 17.9565 27.7507C17.9565 27.0159 18.1284 26.3818 18.4721 25.8485C18.8158 25.3033 19.3017 24.8826 19.9299 24.5863ZM24.2854 22.2574C24.2854 21.7715 24.1432 21.3981 23.8587 21.1374C23.5862 20.8648 23.2187 20.7285 22.7565 20.7285C22.2943 20.7285 21.921 20.8648 21.6365 21.1374C21.3639 21.41 21.2276 21.7892 21.2276 22.2752C21.2276 22.7374 21.3699 23.1048 21.6543 23.3774C21.9387 23.6381 22.3062 23.7685 22.7565 23.7685C23.2069 23.7685 23.5743 23.6322 23.8587 23.3596C24.1432 23.087 24.2854 22.7196 24.2854 22.2574ZM22.7565 25.9018C22.1995 25.9018 21.7491 26.0559 21.4054 26.3641C21.0617 26.6604 20.8899 27.0752 20.8899 27.6085C20.8899 28.1063 21.0558 28.5152 21.3876 28.8352C21.7313 29.1552 22.1876 29.3152 22.7565 29.3152C23.3254 29.3152 23.7699 29.1552 24.0899 28.8352C24.4217 28.5152 24.5876 28.1063 24.5876 27.6085C24.5876 27.087 24.4158 26.6722 24.0721 26.3641C23.7402 26.0559 23.3017 25.9018 22.7565 25.9018ZM38.6399 26.7018H35.5465V29.8663H32.6665V26.7018H29.5732V23.9818H32.6665V20.7996H35.5465V23.9818H38.6399V26.7018Z" fill="white"/>
</svg>
