<svg width="42" height="42" viewBox="0 0 42 42" fill="none" xmlns="http://www.w3.org/2000/svg">
<path d="M21 3.5C11.375 3.5 3.5 11.375 3.5 21C3.5 30.625 11.375 38.5 21 38.5C30.625 38.5 38.5 30.625 38.5 21C38.5 11.375 30.625 3.5 21 3.5ZM27.475 22.225C26.775 22.925 25.725 22.925 25.025 22.225L22.75 19.95V26.25C22.75 27.3 22.05 28 21 28C19.95 28 19.25 27.3 19.25 26.25V19.95L16.975 22.225C16.275 22.925 15.225 22.925 14.525 22.225C13.825 21.525 13.825 20.475 14.525 19.775L19.775 14.525C20.475 13.825 21.525 13.825 22.225 14.525L27.475 19.775C28.175 20.475 28.175 21.525 27.475 22.225Z" fill="#18C214"/>
</svg>
