<svg width="20" height="21" viewBox="0 0 20 21" fill="none" xmlns="http://www.w3.org/2000/svg">
<path d="M6.74 11.209L2.17333 15.7757C1.98917 15.4457 1.875 15.0707 1.875 14.6665V7.30234L6.74 11.209ZM9.36833 11.7165C9.73667 12.004 10.2633 12.004 10.6383 11.7107L17.9417 5.84567C17.9758 5.819 18.015 5.80734 18.0525 5.789C17.8067 4.78817 16.9083 4.0415 15.8333 4.0415H4.16667C3.09167 4.0415 2.19333 4.78817 1.9475 5.789C1.98417 5.80817 2.02417 5.819 2.05833 5.84567L9.36833 11.7165ZM11.4142 12.6915C10.995 13.0173 10.495 13.1798 9.9975 13.1798C9.5 13.1798 9.00667 13.019 8.5925 12.6965L7.72 11.9957L3.05667 16.659C3.38667 16.8432 3.76167 16.9573 4.16583 16.9573H15.8325C16.2367 16.9573 16.6117 16.8432 16.9417 16.659L12.2792 11.9965L11.4142 12.6915ZM13.26 11.209L17.8267 15.7757C18.0108 15.4457 18.125 15.0707 18.125 14.6665V7.30234L13.26 11.209Z" fill="url(#paint0_linear_117_483)"/>
<defs>
<linearGradient id="paint0_linear_117_483" x1="10.056" y1="1.90019" x2="10.6968" y2="18.563" gradientUnits="userSpaceOnUse">
<stop stop-color="#9C2CF3"/>
<stop offset="1" stop-color="#3A49F9"/>
</linearGradient>
</defs>
</svg>
