<svg width="25" height="26" viewBox="0 0 25 26" fill="none" xmlns="http://www.w3.org/2000/svg">
<g clip-path="url(#clip0_5128_10777)">
<path d="M12.5 0.5C19.4092 0.5 25 6.09082 25 13C25 19.9092 19.4092 25.5 12.5 25.5C5.59082 25.5 0 19.9092 0 13C0 6.09082 5.59082 0.5 12.5 0.5ZM12.5 23.9619C18.5303 23.9619 23.4375 19.0303 23.4375 13C23.4375 6.96973 18.5303 2.0625 12.5 2.0625C6.46973 2.0625 1.5625 6.96973 1.5625 13C1.5625 19.0303 6.46973 23.9619 12.5 23.9619ZM11.6455 13.7812H7.03125C6.5918 13.7812 6.25 13.4395 6.25 13C6.25 12.5605 6.5918 12.2188 7.03125 12.2188H17.9688C18.4082 12.2188 18.75 12.5605 18.75 13C18.75 13.4395 18.4082 13.7812 17.9688 13.7812H11.6455Z" fill="white"/>
</g>
<defs>
<clipPath id="clip0_5128_10777">
<rect width="25" height="25" fill="white" transform="translate(0 0.5)"/>
</clipPath>
</defs>
</svg>
