<svg width="49" height="48" viewBox="0 0 49 48" fill="none" xmlns="http://www.w3.org/2000/svg">
<circle cx="25" cy="24" r="24" fill="#17AE41"/>
<g clip-path="url(#clip0_117_487)">
<path fill-rule="evenodd" clip-rule="evenodd" d="M27.4216 33.8071C27.4216 32.9776 26.7491 32.3052 25.9196 32.3052H24.0804C23.6821 32.3052 23.3 32.4634 23.0184 32.7451C22.7367 33.0268 22.5784 33.4088 22.5784 33.8071C22.5784 34.6366 23.2509 35.3091 24.0804 35.3091H25.9196C26.7491 35.3091 27.4216 34.6366 27.4216 33.8071ZM16.1575 29.9342C16.4084 29.9533 16.7119 29.9644 17.0168 29.9465C17.1792 30.7702 17.5827 31.5342 18.185 32.1365C18.9846 32.9361 20.0691 33.3853 21.1998 33.3853H21.7729C21.7477 33.5235 21.7347 33.6647 21.7347 33.8071C21.7347 33.9512 21.7477 34.0922 21.7726 34.229H21.1998C19.8453 34.229 18.5462 33.6909 17.5884 32.7331C16.8243 31.969 16.3273 30.9876 16.1575 29.9342ZM15.7284 29.0364C15.0622 28.9241 14.4423 28.6074 13.9585 28.1234C13.3448 27.5098 13 26.6774 13 25.8095V23.8153C13 22.9474 13.3448 22.1151 13.9585 21.5014C14.5721 20.8877 15.4045 20.5429 16.2724 20.5429H16.4902C16.8384 16.1481 20.5154 12.6899 25 12.6899C29.4846 12.6899 33.1616 16.1481 33.5098 20.5429H33.7276C34.5955 20.5429 35.4279 20.8877 36.0415 21.5014C36.6552 22.1151 37 22.9474 37 23.8153V25.8095C37 26.6774 36.6552 27.5098 36.0415 28.1234C35.4279 28.7372 34.5955 29.0819 33.7276 29.0819H32.7619C32.3614 29.0819 32.0368 28.7572 32.0368 28.3568V21.2267C32.0368 17.3404 28.8863 14.1899 25 14.1899C21.1137 14.1899 17.9632 17.3404 17.9632 21.2267V28.3568C17.9632 28.6395 17.8014 28.8846 17.5652 29.0041C16.9151 29.2297 15.907 29.0665 15.7284 29.0364Z" fill="white"/>
</g>
<defs>
<clipPath id="clip0_117_487">
<rect width="24" height="24" fill="white" transform="translate(13 12)"/>
</clipPath>
</defs>
</svg>
