<svg width="23" height="30" viewBox="0 0 23 30" fill="none" xmlns="http://www.w3.org/2000/svg">
<path d="M11.5 30C17.2003 30 21.8213 29.1427 21.8213 28.0851C21.8213 27.0276 17.2003 26.1702 11.5 26.1702C5.7997 26.1702 1.17868 27.0276 1.17868 28.0851C1.17868 29.1427 5.7997 30 11.5 30Z" fill="url(#paint0_linear_117_686)"/>
<g clip-path="url(#clip0_117_686)">
<path d="M11 22.0357C15.9903 22.0357 20.0357 17.9903 20.0357 13C20.0357 8.00972 15.9903 3.96429 11 3.96429C6.00972 3.96429 1.96429 8.00972 1.96429 13C1.96429 17.9903 6.00972 22.0357 11 22.0357Z" fill="#01B846"/>
<path d="M11 22.3893C16.1856 22.3893 20.3893 18.1856 20.3893 13C20.3893 7.81444 16.1856 3.61072 11 3.61072C5.81444 3.61072 1.61072 7.81444 1.61072 13C1.61072 18.1856 5.81444 22.3893 11 22.3893Z" fill="#4D1F5E"/>
<path opacity="0.3" d="M11 23.8036C16.9666 23.8036 21.8036 18.9666 21.8036 13C21.8036 7.03333 16.9666 2.19641 11 2.19641C5.03333 2.19641 0.196411 7.03333 0.196411 13C0.196411 18.9666 5.03333 23.8036 11 23.8036Z" fill="white"/>
<path d="M21.7326 15.4147C23.0576 9.48596 19.3255 3.60567 13.3968 2.28068C7.46806 0.955693 1.58776 4.68776 0.262778 10.6165C-1.06221 16.5452 2.66986 22.4255 8.59858 23.7505C14.5273 25.0755 20.4076 21.3434 21.7326 15.4147Z" fill="#3D3D5C"/>
<path d="M21.3884 15.3394C22.6714 9.60129 19.0598 3.90953 13.3216 2.62654C7.58347 1.34356 1.89171 4.95519 0.608726 10.6933C-0.67426 16.4315 2.93737 22.1233 8.67552 23.4062C14.4137 24.6892 20.1054 21.0776 21.3884 15.3394Z" fill="#3E307A"/>
<path d="M11 22.5857C16.294 22.5857 20.5857 18.294 20.5857 13C20.5857 7.70595 16.294 3.41428 11 3.41428C5.70595 3.41428 1.41428 7.70595 1.41428 13C1.41428 18.294 5.70595 22.5857 11 22.5857Z" fill="#7D3299"/>
<path d="M11 22.3893C16.1856 22.3893 20.3893 18.1856 20.3893 13C20.3893 7.81444 16.1856 3.61072 11 3.61072C5.81444 3.61072 1.61072 7.81444 1.61072 13C1.61072 18.1856 5.81444 22.3893 11 22.3893Z" fill="#4D1F5E"/>
<path d="M11 22.0357C15.9903 22.0357 20.0357 17.9903 20.0357 13C20.0357 8.00972 15.9903 3.96429 11 3.96429C6.00972 3.96429 1.96429 8.00972 1.96429 13C1.96429 17.9903 6.00972 22.0357 11 22.0357Z" fill="white"/>
<path d="M11.1179 12.9607H20.0357C20.0357 10.4857 19.0143 8.24643 17.4036 6.63571L11.1179 12.9607Z" fill="#3D89B8"/>
<path d="M10.9607 3.96429C8.48571 3.96429 6.24643 4.98572 4.63571 6.59644L10.9607 12.9214V3.96429Z" fill="#973DB8"/>
<path d="M10.9214 12.9607L4.59644 6.63571C2.98572 8.28571 1.96429 10.4857 1.96429 12.9607H10.9214Z" fill="#893DB8"/>
<path d="M11.0393 3.96429V12.9214L17.3643 6.59644C15.7536 4.98572 13.5143 3.96429 11.0393 3.96429Z" fill="#40A0B8"/>
<path d="M10.9214 13.0393H1.96429C1.96429 15.5143 2.98572 17.7536 4.59644 19.3643L10.9214 13.0393Z" fill="#6C3DB8"/>
<path d="M10.9607 13.1179L4.63571 19.4429C6.28571 21.0536 8.48571 22.0357 10.9607 22.0357V13.1179Z" fill="#563DB8"/>
<path d="M11.1179 13.0393L17.4429 19.3643C19.0536 17.7536 20.0357 15.5143 20.075 13.0393H11.1179Z" fill="#3D56B8"/>
<path d="M11.0393 13.1179V22.0357C13.5143 22.0357 15.7536 21.0143 17.3643 19.4036L11.0393 13.1179Z" fill="#3D41B8"/>
<path opacity="0.3" d="M10.725 14.8464C11.5929 14.8464 12.2964 14.1429 12.2964 13.275C12.2964 12.4071 11.5929 11.7036 10.725 11.7036C9.85712 11.7036 9.15356 12.4071 9.15356 13.275C9.15356 14.1429 9.85712 14.8464 10.725 14.8464Z" fill="black"/>
<path opacity="0.3" d="M10.7643 14.8071C11.6321 14.8071 12.3357 14.1036 12.3357 13.2357C12.3357 12.3678 11.6321 11.6643 10.7643 11.6643C9.89639 11.6643 9.19284 12.3678 9.19284 13.2357C9.19284 14.1036 9.89639 14.8071 10.7643 14.8071Z" fill="black"/>
<path opacity="0.4" d="M12.1393 10.8393C12.1393 12.6071 11.3929 14.0607 10.4893 14.0607C9.58572 14.0607 8.83929 12.6071 8.83929 10.8393C8.83929 9.07143 10.2536 6.91071 10.4893 6.91071C10.7643 6.87143 12.1393 9.03214 12.1393 10.8393Z" fill="black"/>
<path opacity="0.4" d="M12.375 10.8393C12.375 12.6071 11.6286 14.0607 10.725 14.0607C9.82141 14.0607 9.07498 12.6071 9.07498 10.8393C9.07498 9.07143 10.4893 6.91071 10.725 6.91071C11 6.87143 12.375 9.03214 12.375 10.8393Z" fill="black"/>
<path d="M12.65 10.8393C12.65 12.6071 11.9036 14.0607 11 14.0607C10.0964 14.0607 9.35001 12.6071 9.35001 10.8393C9.35001 9.07143 10.7643 6.91071 11 6.91071C11.275 6.87143 12.65 9.03214 12.65 10.8393Z" fill="#F2F2F2"/>
<path opacity="0.2" d="M9.50713 10.8393C9.50713 9.22856 10.6857 7.30356 11.0786 6.94999C11.0393 6.91071 11 6.91071 10.9607 6.91071C10.6857 6.91071 9.3107 9.07142 9.3107 10.8393C9.3107 12.6071 10.0571 14.0607 10.9607 14.0607C11 14.0607 11.0393 14.0607 11.0786 14.0607C10.2143 13.9428 9.50713 12.5286 9.50713 10.8393Z" fill="#701B8F"/>
<path d="M11 14.5714C11.8679 14.5714 12.5714 13.8679 12.5714 13C12.5714 12.1321 11.8679 11.4286 11 11.4286C10.1321 11.4286 9.42856 12.1321 9.42856 13C9.42856 13.8679 10.1321 14.5714 11 14.5714Z" fill="white"/>
<path d="M10.9607 14.0607C11.9036 14.0607 12.65 12.6071 12.65 10.8393C12.65 9.07142 11.275 6.91071 11 6.91071V14.0607H10.9607Z" fill="white"/>
<path d="M12.4536 13C12.4536 13.7857 11.825 14.4536 11 14.4536C10.2143 14.4536 9.54642 13.825 9.54642 13C9.54642 12.175 10.175 11.5464 11 11.5464C11.825 11.5857 12.4536 12.2143 12.4536 13Z" fill="url(#paint1_radial_117_686)"/>
<path d="M10.9607 3.25715C10.8821 3.25715 10.8036 3.17858 10.8036 3.10001V2.62858C10.8036 2.55001 10.8821 2.47144 10.9607 2.47144C11.0393 2.47144 11.1178 2.55001 11.1178 2.62858V3.13929C11.1178 3.21786 11.0393 3.25715 10.9607 3.25715Z" fill="#D053FF"/>
<path d="M10.0178 3.3357C9.93927 3.3357 9.8607 3.29642 9.8607 3.21784L9.82141 2.70713C9.82141 2.62856 9.8607 2.54999 9.93927 2.54999C10.0178 2.54999 10.0964 2.58927 10.0964 2.66784L10.1357 3.17856C10.1357 3.25713 10.0964 3.29642 10.0178 3.3357Z" fill="#D053FF"/>
<path d="M9.07501 3.45358C8.99644 3.45358 8.91787 3.4143 8.91787 3.33572L8.83929 2.8643C8.83929 2.78572 8.87858 2.70715 8.95715 2.70715C9.03572 2.70715 9.11429 2.74644 9.11429 2.82501L9.19287 3.29644C9.19287 3.37501 9.15358 3.45358 9.07501 3.45358Z" fill="#D053FF"/>
<path d="M8.13213 3.68929C8.05356 3.72858 7.97498 3.68929 7.97498 3.61072L7.81784 3.13929C7.77856 3.06072 7.81784 2.98215 7.89641 2.98215C7.97498 2.94286 8.05356 2.98215 8.05356 3.06072L8.24998 3.53215C8.24998 3.61072 8.2107 3.68929 8.13213 3.68929Z" fill="#D053FF"/>
<path d="M7.22857 4.04285C7.18929 4.04285 7.07143 4.04285 7.07143 3.96428L6.875 3.49285C6.83571 3.41427 6.875 3.3357 6.95357 3.29642C7.03214 3.25713 7.11072 3.29642 7.15 3.37499L7.34643 3.84642C7.34643 3.92499 7.30714 4.00356 7.22857 4.04285Z" fill="#D053FF"/>
<path d="M6.36428 4.43572C6.28571 4.475 6.20714 4.43572 6.16785 4.39643L5.93214 3.96429C5.89285 3.88572 5.93214 3.80715 5.97142 3.76786C6.04999 3.72857 6.12856 3.76786 6.16785 3.80715L6.40356 4.23929C6.48214 4.31786 6.44285 4.39643 6.36428 4.43572Z" fill="#D053FF"/>
<path d="M5.57856 4.94644C5.49999 4.98572 5.42142 4.98572 5.38213 4.90715L5.10713 4.47501C5.06785 4.39644 5.06785 4.31787 5.14642 4.27858C5.22499 4.2393 5.30356 4.2393 5.34285 4.31787L5.61785 4.75001C5.65713 4.7893 5.61785 4.90715 5.57856 4.94644Z" fill="#D053FF"/>
<path d="M4.79286 5.49644C4.71429 5.53572 4.63572 5.53572 4.59644 5.49644L4.28215 5.10358C4.24286 5.02501 4.24286 4.94644 4.28215 4.90715C4.36072 4.86786 4.43929 4.86786 4.47858 4.90715L4.79286 5.30001C4.87144 5.37858 4.87144 5.45715 4.79286 5.49644Z" fill="#D053FF"/>
<path d="M4.08572 6.16429C4.04643 6.20357 3.92858 6.20357 3.88929 6.16429L3.53572 5.81072C3.49643 5.73214 3.49643 5.65357 3.53572 5.61429C3.61429 5.53572 3.69286 5.53572 3.73215 5.61429L4.08572 5.96786C4.16429 6.00714 4.16429 6.08572 4.08572 6.16429Z" fill="#D053FF"/>
<path d="M3.45714 6.87143C3.41786 6.95 3.3 6.95 3.26072 6.87143L2.86786 6.55715C2.78929 6.51786 2.78929 6.4 2.86786 6.36072C2.90714 6.28215 3.025 6.28215 3.06429 6.36072L3.45714 6.675C3.49643 6.71429 3.49643 6.79286 3.45714 6.87143Z" fill="#D053FF"/>
<path d="M2.90713 7.61786C2.86785 7.69643 2.78928 7.69643 2.7107 7.65714L2.27856 7.38214C2.19999 7.34286 2.19999 7.26429 2.23928 7.18572C2.27856 7.14643 2.35713 7.10714 2.4357 7.14643L2.86785 7.42143C2.90713 7.5 2.94642 7.57857 2.90713 7.61786Z" fill="#D053FF"/>
<path d="M2.39642 8.44286C2.35714 8.52143 2.27856 8.52143 2.19999 8.48215L1.76785 8.28572C1.68928 8.24643 1.68928 8.16786 1.72856 8.08929C1.76785 8.01072 1.84642 8.01072 1.92499 8.05001L2.35714 8.24643C2.39642 8.28572 2.43571 8.40358 2.39642 8.44286Z" fill="#D053FF"/>
<path d="M2.00357 9.30713C1.96428 9.38571 1.88571 9.42499 1.80714 9.3857L1.33571 9.18928C1.25714 9.14999 1.21786 9.07142 1.25714 8.99285C1.29643 8.91428 1.375 8.87499 1.45357 8.91428L1.925 9.11071C2.00357 9.14999 2.04286 9.26785 2.00357 9.30713Z" fill="#D053FF"/>
<path d="M1.68929 10.2107C1.65 10.2893 1.57143 10.3286 1.53215 10.2893L1.06072 10.1321C0.982148 10.0929 0.942862 10.0143 0.982148 9.97499C1.02143 9.89642 1.1 9.85714 1.13929 9.89642L1.57143 10.0536C1.65 10.0536 1.68929 10.1321 1.68929 10.2107Z" fill="#D053FF"/>
<path d="M1.45356 11.1536C1.45356 11.2321 1.37499 11.2714 1.29642 11.2714L0.785704 11.1536C0.707132 11.1536 0.667847 11.075 0.667847 10.9964C0.667847 10.9179 0.746418 10.8786 0.824989 10.8786L1.29642 10.9571C1.41428 10.9964 1.45356 11.075 1.45356 11.1536Z" fill="#D053FF"/>
<path d="M1.29642 12.0964C1.29642 12.175 1.25713 12.2143 1.17856 12.2143L0.667845 12.175C0.589274 12.175 0.549988 12.0964 0.549988 12.0179C0.549988 11.9393 0.628559 11.9 0.707131 11.9L1.17856 11.9393C1.25713 11.9393 1.3357 12.0179 1.29642 12.0964Z" fill="#D053FF"/>
<path d="M1.25715 13.0393C1.25715 13.1179 1.17858 13.1964 1.10001 13.1964H0.628578C0.550007 13.1964 0.471436 13.1179 0.471436 13.0393C0.471436 12.9607 0.550007 12.8821 0.628578 12.8821H1.13929C1.21786 12.9214 1.25715 12.9607 1.25715 13.0393Z" fill="#D053FF"/>
<path d="M1.3357 14.0214C1.3357 14.1 1.29642 14.1786 1.21784 14.1786L0.707131 14.2179C0.628559 14.2179 0.549988 14.1786 0.549988 14.1C0.549988 14.0214 0.589274 13.9429 0.667845 13.9429L1.17856 13.8643C1.25713 13.8643 1.29642 13.9429 1.3357 14.0214Z" fill="#D053FF"/>
<path d="M1.45358 14.9643C1.45358 15.0428 1.4143 15.1214 1.33572 15.1214L0.864296 15.2C0.785725 15.2 0.707153 15.1607 0.707153 15.0821C0.707153 15.0036 0.746439 14.925 0.82501 14.925L1.29644 14.8464C1.37501 14.8071 1.45358 14.8857 1.45358 14.9643Z" fill="#D053FF"/>
<path d="M1.68929 15.8678C1.72858 15.9464 1.68929 16.025 1.61072 16.025L1.13929 16.1821C1.06072 16.2214 0.982148 16.1821 0.982148 16.1036C0.942862 16.025 0.982148 15.9464 1.06072 15.9464L1.53215 15.7893C1.61072 15.75 1.68929 15.7893 1.68929 15.8678Z" fill="#D053FF"/>
<path d="M2.04285 16.7714C2.08213 16.85 2.04285 16.9286 1.96428 16.9678L1.49285 17.1643C1.41427 17.2036 1.3357 17.1643 1.29642 17.0857C1.25713 17.0071 1.29642 16.9286 1.37499 16.8893L1.84642 16.6928C1.92499 16.6536 2.00356 16.6928 2.04285 16.7714Z" fill="#D053FF"/>
<path d="M2.43572 17.6357C2.475 17.7143 2.43572 17.7929 2.39643 17.8321L1.96429 18.0679C1.88572 18.1071 1.80715 18.0679 1.76786 18.0286C1.72857 17.95 1.76786 17.8714 1.80715 17.8321L2.23929 17.5964C2.31786 17.5571 2.39643 17.5571 2.43572 17.6357Z" fill="#D053FF"/>
<path d="M2.94644 18.4607C2.98572 18.5393 2.98572 18.6179 2.90715 18.6571L2.47501 18.9321C2.39644 18.9714 2.31787 18.9714 2.27858 18.8929C2.2393 18.8143 2.2393 18.7357 2.31787 18.6964L2.75001 18.4214C2.7893 18.3821 2.90715 18.3821 2.94644 18.4607Z" fill="#D053FF"/>
<path d="M3.49644 19.2071C3.53572 19.2857 3.53572 19.3643 3.49644 19.4036L3.10358 19.7179C3.02501 19.7571 2.94644 19.7571 2.90715 19.7179C2.86786 19.6393 2.86786 19.5607 2.90715 19.5214L3.30001 19.2071C3.37858 19.1679 3.45715 19.1679 3.49644 19.2071Z" fill="#D053FF"/>
<path d="M4.16427 19.9143C4.20356 19.9536 4.20356 20.0714 4.16427 20.1107L3.8107 20.4643C3.77142 20.5036 3.65356 20.5036 3.61427 20.4643C3.57499 20.425 3.57499 20.3071 3.61427 20.2679L3.96784 19.9143C4.00713 19.875 4.0857 19.875 4.16427 19.9143Z" fill="#D053FF"/>
<path d="M4.87143 20.5821C4.95 20.6214 4.95 20.7393 4.87143 20.7786L4.55715 21.1714C4.51786 21.25 4.4 21.25 4.36072 21.1714C4.28215 21.1321 4.28215 21.0143 4.36072 20.975L4.675 20.5821C4.71429 20.5036 4.79286 20.5036 4.87143 20.5821Z" fill="#D053FF"/>
<path d="M5.61784 21.1321C5.69641 21.1714 5.69641 21.25 5.65712 21.3286L5.38212 21.7607C5.34284 21.8393 5.26427 21.8393 5.1857 21.8C5.10712 21.7607 5.10712 21.6821 5.14641 21.6036L5.42141 21.1714C5.49998 21.0928 5.57855 21.0928 5.61784 21.1321Z" fill="#D053FF"/>
<path d="M6.44286 21.6036C6.52143 21.6428 6.52143 21.7214 6.48215 21.8L6.28572 22.2321C6.24643 22.3107 6.16786 22.3107 6.08929 22.2714C6.01072 22.2321 6.01072 22.1536 6.05001 22.075L6.28572 21.6428C6.28572 21.6036 6.40358 21.5643 6.44286 21.6036Z" fill="#D053FF"/>
<path d="M7.30713 22.0357C7.38571 22.075 7.42499 22.1536 7.3857 22.2321L7.18928 22.7036C7.14999 22.7821 7.07142 22.8214 6.99285 22.7821C6.91428 22.7428 6.87499 22.6643 6.91428 22.5857L7.11071 22.1143C7.14999 22.0357 7.26785 21.9964 7.30713 22.0357Z" fill="#D053FF"/>
<path d="M8.21071 22.35C8.28928 22.3893 8.32857 22.4679 8.28928 22.5072L8.13214 22.9786C8.09285 23.0572 8.01428 23.0964 7.97499 23.0571C7.89642 23.0179 7.85714 22.9393 7.89642 22.9L8.05357 22.4286C8.05357 22.35 8.13214 22.3107 8.21071 22.35Z" fill="#D053FF"/>
<path d="M9.15357 22.5857C9.23214 22.5857 9.27143 22.6643 9.27143 22.7429L9.15357 23.2143C9.15357 23.2929 9.075 23.3321 8.99643 23.3321C8.91786 23.3321 8.87857 23.2536 8.87857 23.175L8.95714 22.7036C8.99643 22.5857 9.075 22.5464 9.15357 22.5857Z" fill="#D053FF"/>
<path d="M10.0964 22.7036C10.175 22.7036 10.2143 22.7821 10.2143 22.8607L10.175 23.3714C10.175 23.45 10.0964 23.4893 10.0179 23.4893C9.93928 23.4893 9.89999 23.4107 9.89999 23.3321L9.93928 22.8214C9.93928 22.7428 10.0179 22.7036 10.0964 22.7036Z" fill="#D053FF"/>
<path d="M11.0393 22.7429C11.1179 22.7429 11.1964 22.8214 11.1964 22.9V23.4107C11.1964 23.4893 11.1179 23.5679 11.0393 23.5679C10.9607 23.5679 10.8821 23.4893 10.8821 23.4107V22.9C10.9214 22.8214 10.9607 22.7429 11.0393 22.7429Z" fill="#D053FF"/>
<path d="M12.0214 22.7036C12.1 22.7036 12.1786 22.7428 12.1786 22.8214L12.2179 23.3321C12.2179 23.4107 12.1786 23.4893 12.1 23.4893C12.0214 23.4893 11.9429 23.45 11.9429 23.3714L11.9036 22.8607C11.8643 22.7821 11.9429 22.7036 12.0214 22.7036Z" fill="#D053FF"/>
<path d="M12.9643 22.5464C13.0428 22.5464 13.1214 22.5857 13.1214 22.6643L13.2 23.1357C13.2 23.2143 13.1607 23.2928 13.0821 23.2928C13.0036 23.2928 12.925 23.2536 12.925 23.175L12.8464 22.7036C12.8071 22.625 12.8857 22.5857 12.9643 22.5464Z" fill="#D053FF"/>
<path d="M13.8678 22.3107C13.9464 22.2714 14.025 22.3107 14.025 22.3893L14.1821 22.8607C14.2214 22.9393 14.1821 23.0178 14.1036 23.0178C14.025 23.0571 13.9464 23.0178 13.9464 22.9393L13.7893 22.4678C13.75 22.4286 13.7893 22.35 13.8678 22.3107Z" fill="#D053FF"/>
<path d="M14.7714 21.9964C14.85 21.9571 14.9286 21.9964 14.9678 22.075L15.1643 22.5464C15.2036 22.625 15.1643 22.7036 15.0857 22.7429C15.0071 22.7821 14.9286 22.7429 14.8893 22.6643L14.6928 22.1929C14.6536 22.1143 14.6928 22.0357 14.7714 21.9964Z" fill="#D053FF"/>
<path d="M15.6357 21.5643C15.7143 21.525 15.7929 21.5643 15.8321 21.6036L16.0679 22.0357C16.1071 22.1143 16.0679 22.1928 16.0286 22.2321C15.95 22.2714 15.8714 22.2321 15.8321 22.1928L15.5964 21.7607C15.5571 21.6821 15.5571 21.6036 15.6357 21.5643Z" fill="#D053FF"/>
<path d="M16.4607 21.0929C16.5393 21.0536 16.6179 21.0536 16.6571 21.1321L16.9321 21.5643C16.9714 21.6429 16.9714 21.7214 16.8929 21.7607C16.8143 21.8 16.7357 21.8 16.6964 21.7214L16.4214 21.2893C16.3821 21.2107 16.3821 21.1321 16.4607 21.0929Z" fill="#D053FF"/>
<path d="M17.2071 20.5036C17.2857 20.4643 17.3643 20.4643 17.4036 20.5036L17.7179 20.8964C17.7571 20.975 17.7571 21.0536 17.7179 21.0928C17.6393 21.1321 17.5607 21.1321 17.5214 21.0928L17.2071 20.7C17.1679 20.6607 17.1679 20.5428 17.2071 20.5036Z" fill="#D053FF"/>
<path d="M17.9143 19.875C17.9536 19.8357 18.0714 19.8357 18.1107 19.875L18.4643 20.2286C18.5036 20.2678 18.5036 20.3857 18.4643 20.425C18.425 20.4643 18.3071 20.4643 18.2679 20.425L17.9143 20.0714C17.875 19.9928 17.875 19.9143 17.9143 19.875Z" fill="#D053FF"/>
<path d="M18.5822 19.1678C18.6214 19.0893 18.7393 19.0893 18.7786 19.1678L19.1714 19.4821C19.25 19.5214 19.25 19.6393 19.1714 19.6786C19.1322 19.7571 19.0143 19.7571 18.975 19.6786L18.5822 19.3643C18.5036 19.2857 18.5036 19.2071 18.5822 19.1678Z" fill="#D053FF"/>
<path d="M19.1321 18.3821C19.1714 18.3036 19.25 18.3036 19.3286 18.3429L19.7607 18.6179C19.8393 18.6571 19.8393 18.7357 19.8 18.8143C19.7214 18.8929 19.6428 18.8929 19.5643 18.8536L19.1321 18.5786C19.0928 18.5393 19.0928 18.4607 19.1321 18.3821Z" fill="#D053FF"/>
<path d="M19.6036 17.5571C19.6428 17.4786 19.7214 17.4786 19.8 17.5178L20.2321 17.7536C20.3107 17.7928 20.3107 17.8714 20.2714 17.95C20.2321 18.0286 20.1536 18.0286 20.075 17.9893L19.6428 17.7536C19.6036 17.7143 19.5643 17.6357 19.6036 17.5571Z" fill="#D053FF"/>
<path d="M20.0357 16.6929C20.075 16.6143 20.1536 16.575 20.2321 16.6143L20.7036 16.8107C20.7821 16.85 20.8214 16.9286 20.7821 17.0071C20.7428 17.0857 20.6643 17.125 20.5857 17.0857L20.1143 16.8893C20.0357 16.85 19.9964 16.7714 20.0357 16.6929Z" fill="#D053FF"/>
<path d="M20.35 15.7893C20.3893 15.7107 20.4679 15.6714 20.5072 15.7107L20.9786 15.8679C21.0572 15.9072 21.0964 15.9857 21.0571 16.025C21.0179 16.1036 20.9393 16.1429 20.9 16.1036L20.4286 15.9857C20.35 15.9464 20.3107 15.8679 20.35 15.7893Z" fill="#D053FF"/>
<path d="M20.5857 14.8857C20.5857 14.8071 20.6643 14.7679 20.7429 14.7679L21.2143 14.8464C21.2929 14.8464 21.3321 14.925 21.3321 15.0036C21.3321 15.0821 21.2536 15.1214 21.175 15.1214L20.7036 15.0429C20.5857 15.0036 20.5464 14.925 20.5857 14.8857Z" fill="#D053FF"/>
<path d="M20.7036 13.9036C20.7036 13.825 20.7821 13.7857 20.8607 13.7857L21.3714 13.825C21.45 13.825 21.4893 13.9036 21.4893 13.9821C21.4893 14.0607 21.4107 14.1 21.3321 14.1L20.8214 14.0607C20.7428 14.0607 20.7036 13.9821 20.7036 13.9036Z" fill="#D053FF"/>
<path d="M20.7429 12.9607C20.7429 12.8821 20.8214 12.8036 20.9 12.8036H21.4107C21.4893 12.8036 21.5679 12.8821 21.5679 12.9607C21.5679 13.0393 21.4893 13.1178 21.4107 13.1178H20.9C20.8214 13.1178 20.7429 13.0393 20.7429 12.9607Z" fill="#D053FF"/>
<path d="M20.7036 12.0178C20.7036 11.9393 20.7428 11.8607 20.8214 11.8607L21.3321 11.8214C21.4107 11.8214 21.4893 11.8607 21.4893 11.9393C21.4893 12.0178 21.45 12.0964 21.3714 12.0964L20.8607 12.1357C20.7821 12.1357 20.7036 12.0964 20.7036 12.0178Z" fill="#D053FF"/>
<path d="M20.5464 11.075C20.5464 10.9964 20.5857 10.9179 20.6643 10.9179L21.1357 10.8393C21.2143 10.8393 21.2928 10.8786 21.2928 10.9572C21.2928 11.0357 21.2536 11.1143 21.175 11.1143L20.7036 11.1929C20.625 11.1929 20.5857 11.1536 20.5464 11.075Z" fill="#D053FF"/>
<path d="M20.3107 10.1321C20.2714 10.0536 20.3107 9.97498 20.3893 9.97498L20.8607 9.81784C20.9393 9.77856 21.0178 9.81784 21.0178 9.89641C21.0571 9.97498 21.0178 10.0536 20.9393 10.0536L20.5071 10.25C20.4286 10.25 20.35 10.2107 20.3107 10.1321Z" fill="#D053FF"/>
<path d="M19.9964 9.22858C19.9571 9.15001 19.9964 9.07144 20.075 9.03215L20.5464 8.83572C20.625 8.79644 20.7036 8.83572 20.7429 8.9143C20.7821 8.99287 20.7429 9.07144 20.6643 9.11072L20.1929 9.30715C20.1143 9.34644 20.0357 9.30715 19.9964 9.22858Z" fill="#D053FF"/>
<path d="M19.5643 8.36428C19.525 8.28571 19.5643 8.20714 19.6036 8.16785L20.0357 7.93214C20.1143 7.89285 20.1928 7.93214 20.2321 7.97142C20.2714 8.04999 20.2321 8.12856 20.1928 8.16785L19.7607 8.40356C19.6821 8.48214 19.6036 8.44285 19.5643 8.36428Z" fill="#D053FF"/>
<path d="M19.0931 7.57853C19.0538 7.49996 19.0538 7.42139 19.1324 7.3821L19.5645 7.1071C19.6431 7.06782 19.7217 7.06782 19.761 7.14639C19.8002 7.22496 19.8002 7.30353 19.7217 7.34282L19.2895 7.61782C19.211 7.6571 19.1324 7.61782 19.0931 7.57853Z" fill="#D053FF"/>
<path d="M18.5036 6.79286C18.4643 6.71429 18.4643 6.63572 18.5036 6.59644L18.8964 6.28215C18.975 6.24286 19.0536 6.24286 19.0928 6.28215C19.1321 6.36072 19.1321 6.43929 19.0928 6.47858L18.7 6.79286C18.6607 6.87144 18.5428 6.87144 18.5036 6.79286Z" fill="#D053FF"/>
<path d="M17.875 6.08572C17.8357 6.04643 17.8357 5.92858 17.875 5.88929L18.2286 5.53572C18.2678 5.49643 18.3857 5.49643 18.425 5.53572C18.4643 5.57501 18.4643 5.69286 18.425 5.73215L18.0714 6.08572C17.9928 6.16429 17.9143 6.16429 17.875 6.08572Z" fill="#D053FF"/>
<path d="M17.1678 5.45714C17.0893 5.41786 17.0893 5.3 17.1678 5.26072L17.4821 4.86786C17.5214 4.78929 17.6393 4.78929 17.6786 4.86786C17.7571 4.90714 17.7571 5.025 17.6786 5.06429L17.3643 5.45714C17.2857 5.49643 17.2071 5.49643 17.1678 5.45714Z" fill="#D053FF"/>
<path d="M16.3824 4.90704C16.3038 4.86776 16.3038 4.78918 16.3431 4.71061L16.6181 4.27847C16.6574 4.1999 16.736 4.1999 16.8145 4.23918C16.8931 4.27847 16.8931 4.35704 16.8538 4.43561L16.5788 4.86776C16.5395 4.90704 16.461 4.94633 16.3824 4.90704Z" fill="#D053FF"/>
<path d="M15.5571 4.39642C15.4786 4.35714 15.4786 4.27856 15.5178 4.19999L15.7536 3.76785C15.7928 3.68928 15.8714 3.68928 15.95 3.72856C16.0286 3.76785 16.0286 3.84642 15.9893 3.92499L15.7536 4.35714C15.7143 4.39642 15.6357 4.43571 15.5571 4.39642Z" fill="#D053FF"/>
<path d="M14.6929 4.00357C14.6143 3.96428 14.575 3.88571 14.6143 3.80714L14.8107 3.33571C14.85 3.25714 14.9286 3.21786 15.0071 3.25714C15.0857 3.29643 15.125 3.375 15.0857 3.45357L14.8893 3.925C14.85 4.00357 14.7714 4.04286 14.6929 4.00357Z" fill="#D053FF"/>
<path d="M13.7893 3.68929C13.7107 3.65 13.6714 3.57143 13.7107 3.53215L13.8679 3.06072C13.9072 2.98215 13.9857 2.94286 14.025 2.98215C14.1036 3.02143 14.1429 3.1 14.1036 3.13929L13.9857 3.57143C13.9464 3.65 13.8679 3.68929 13.7893 3.68929Z" fill="#D053FF"/>
<path d="M12.8857 3.45356C12.8071 3.45356 12.7679 3.37499 12.7679 3.29642L12.8464 2.7857C12.8464 2.70713 12.925 2.66785 13.0036 2.66785C13.0821 2.66785 13.1214 2.74642 13.1214 2.82499L13.0429 3.29642C13.0036 3.41428 12.925 3.45356 12.8857 3.45356Z" fill="#D053FF"/>
<path d="M11.9036 3.29642C11.825 3.29642 11.7857 3.25713 11.7857 3.17856L11.825 2.66784C11.825 2.58927 11.9036 2.54999 11.9821 2.54999C12.0607 2.54999 12.1 2.62856 12.1 2.70713L12.0607 3.17856C12.0607 3.25713 11.9821 3.3357 11.9036 3.29642Z" fill="#D053FF"/>
<g style="mix-blend-mode:color-burn" opacity="0.5">
<path d="M11 22.5857C16.294 22.5857 20.5857 18.294 20.5857 13C20.5857 7.70595 16.294 3.41428 11 3.41428C5.70595 3.41428 1.41428 7.70595 1.41428 13C1.41428 18.294 5.70595 22.5857 11 22.5857Z" fill="url(#paint2_radial_117_686)"/>
</g>
</g>
<defs>
<linearGradient id="paint0_linear_117_686" x1="1.17868" y1="28.0851" x2="21.8213" y2="28.0851" gradientUnits="userSpaceOnUse">
<stop stop-color="#3C266A"/>
<stop offset="1" stop-color="#3C266A" stop-opacity="0"/>
</linearGradient>
<radialGradient id="paint1_radial_117_686" cx="0" cy="0" r="1" gradientUnits="userSpaceOnUse" gradientTransform="translate(8.77504 13.962) scale(5.982)">
<stop stop-color="#973DB8"/>
<stop offset="1" stop-color="#40A0B8"/>
</radialGradient>
<radialGradient id="paint2_radial_117_686" cx="0" cy="0" r="1" gradientUnits="userSpaceOnUse" gradientTransform="translate(11.0089 13.0089) scale(9.59196)">
<stop offset="0.6377" stop-color="white"/>
<stop offset="1"/>
</radialGradient>
<clipPath id="clip0_117_686">
<rect width="22" height="22" fill="white" transform="translate(0 2)"/>
</clipPath>
</defs>
</svg>
