<svg width="23" height="30" viewBox="0 0 23 30" fill="none" xmlns="http://www.w3.org/2000/svg">
<path d="M11.5 30C17.2003 30 21.8213 29.1427 21.8213 28.0851C21.8213 27.0275 17.2003 26.1702 11.5 26.1702C5.7997 26.1702 1.17868 27.0275 1.17868 28.0851C1.17868 29.1427 5.7997 30 11.5 30Z" fill="url(#paint0_linear_117_527)"/>
<path d="M1.91136 5.26596L0 4.30851L12.5512 0L11.6274 1.91489L1.91136 5.26596Z" fill="#E6EAF5"/>
<path d="M1.91136 15.7021L0.031856 17.0106L0 4.30851L1.91136 5.26596V15.7021Z" fill="#C7CFED"/>
<path d="M11.6274 1.91489L12.5512 0L21.7895 8.04255L18.795 8.1383L11.6274 1.91489Z" fill="white"/>
<path d="M5.98892 24.4149L7.19945 26.4255L1.24239 19.0532L0.0318604 17.0106L5.98892 24.4149Z" fill="#7C8194"/>
<path d="M15.2271 19.6277L16.4377 21.6383L7.19945 26.4255L5.98892 24.4149L15.2271 19.6277Z" fill="#9EA4BD"/>
<path d="M21.7895 8.04256L23 10.0532L16.4377 21.6383L15.2271 19.6277L21.7895 8.04256Z" fill="#C7CFED"/>
<path d="M6.43491 21.2872L5.98892 24.4149L0.0318604 17.0106L1.91136 15.7021L6.43491 21.2872Z" fill="#9EA4BD"/>
<path d="M18.795 8.1383L21.7895 8.04256L15.2272 19.6277L13.3795 17.6809L18.795 8.1383Z" fill="#E6EAF5"/>
<path d="M11.6274 1.91489L18.795 8.1383L13.3795 17.6809L6.43489 21.2872L1.91135 15.7021V5.26596L11.6274 1.91489Z" fill="#944113"/>
<path d="M2.64404 15.383L2.61218 5.61702L11.5637 2.55319L18.0305 8.17021L12.9972 17.0745L6.68974 20.3617L2.64404 15.383Z" fill="#E8842C"/>
<path d="M2.54846 15.4787V5.71276L11.5 2.64893L17.9667 8.29787L12.9335 17.2021L6.59417 20.4894L2.54846 15.4787Z" fill="#B56118"/>
<path d="M13.3795 17.6808L15.2271 19.6277L5.98892 24.4149L6.43491 21.2872L13.3795 17.6808Z" fill="#C7CFED"/>
<path d="M2.77146 14.8723C2.51661 15.1596 2.22991 15.383 1.91135 15.6064V15.734L1.9432 15.766C2.26176 15.5426 2.58032 15.2872 2.86703 15C3.536 14.3298 3.59971 13.2447 3.63157 12.3511V12.3191C3.66342 11.6808 3.50414 11.0745 3.37672 10.4681C3.31301 10.1489 3.21744 9.8617 3.18558 9.54255C3.09002 8.96808 2.96259 8.52128 2.80331 8.04255C2.64403 7.59574 2.61218 7.11702 2.61218 6.6383C2.61218 6.51064 2.61218 6.35106 2.61218 6.2234C2.58032 5.80851 2.58032 5.39362 2.61218 4.97872L2.4529 5.04255C2.4529 5.45744 2.4529 5.84042 2.4529 6.25532C2.4529 6.38298 2.4529 6.54255 2.4529 6.67021C2.4529 7.18085 2.4529 7.65957 2.64403 8.1383C2.80331 8.5851 2.93074 9.03191 3.0263 9.60638C3.09002 9.92553 3.15373 10.2447 3.21744 10.5638C3.37672 11.1702 3.50414 11.7447 3.47229 12.3511V12.383C3.47229 13.2128 3.40858 14.266 2.77146 14.8723Z" fill="#9E4514"/>
<path d="M12.7105 12.0957C13.0291 11.5851 13.4751 11.1702 13.921 10.7553C14.0166 10.6596 14.144 10.5638 14.2396 10.4681C14.4307 10.2766 14.6537 10.0532 14.813 9.8617C15.0679 9.57447 15.3227 9.31915 15.6094 9.06383C16.2147 8.55319 16.9474 8.04255 17.8393 7.53191C17.8712 7.5 17.9349 7.46808 17.9986 7.43617L17.8712 7.34042C17.8393 7.37234 17.8075 7.37234 17.7756 7.40425C16.8836 7.91489 16.151 8.42553 15.5457 8.96808C15.259 9.2234 14.9723 9.51064 14.7174 9.76596C14.5263 9.95744 14.3352 10.1808 14.144 10.3723C14.0485 10.4681 13.9529 10.5638 13.8255 10.6596C13.3795 11.0745 12.9335 11.4894 12.6149 12.0319C11.5318 13.7872 11.5637 16.117 11.5637 18.1277C11.5637 18.2872 11.5637 18.4787 11.5637 18.6383L11.723 18.5426C11.723 18.4149 11.723 18.2553 11.723 18.1277C11.6911 16.117 11.6593 13.8191 12.7105 12.0957Z" fill="#9E4514"/>
<path d="M3.63158 17.266C3.72715 17.0745 3.82272 16.8511 3.91829 16.6277C3.982 16.4681 4.07757 16.3085 4.14128 16.1809C4.39613 15.7021 4.61912 15.2553 4.74654 14.7128C4.90582 14.1383 4.87397 13.5319 4.87397 12.9574C4.87397 12.766 4.87397 12.5745 4.87397 12.4149C4.87397 11.7128 4.84211 11.0106 4.81025 10.3404C4.7784 9.6383 4.74654 8.93617 4.74654 8.23405C4.7784 6.73405 5.22438 5.23405 5.79779 3.95745L5.5748 4.02128C5.03324 5.29788 4.58726 6.73405 4.55541 8.23405C4.55541 8.93617 4.58726 9.67022 4.61912 10.3404C4.65097 11.0106 4.68283 11.7128 4.68283 12.4149C4.68283 12.6064 4.68283 12.7979 4.68283 12.9574C4.68283 13.5319 4.71469 14.1064 4.55541 14.6809C4.42798 15.1915 4.20499 15.6383 3.982 16.117C3.91829 16.2766 3.82272 16.4043 3.75901 16.5638C3.66344 16.7872 3.56787 17.0106 3.4723 17.2021C3.44045 17.2979 3.37674 17.3936 3.34488 17.4894L3.4723 17.617C3.53601 17.5213 3.56787 17.3936 3.63158 17.266Z" fill="#9E4514"/>
<path d="M15.259 11.266C14.4626 11.9681 14.0485 12.734 13.6343 13.5638C13.2521 14.2979 13.2521 14.9681 13.2521 15.766V15.8617C13.2521 15.9574 13.2521 16.0851 13.2521 16.2128C13.2202 16.7553 13.2202 17.2979 13.2521 17.7447L13.3795 17.6809C13.3476 17.1702 13.3476 16.5957 13.3795 16.2447C13.3795 16.0851 13.3795 15.9894 13.3795 15.8936V15.7979C13.3795 15 13.3795 14.3617 13.7299 13.6596C14.1122 12.8617 14.5582 12.0957 15.3227 11.4255C15.8643 10.9468 16.5969 10.7872 17.3296 10.6596L17.4252 10.4681C16.6925 10.5638 15.8643 10.7234 15.259 11.266Z" fill="#9E4514"/>
<path d="M6.97645 21C7.39058 19.9149 7.86842 18.766 8.37811 17.617C8.88781 16.5 9.42936 15.3192 10.162 14.266C10.4169 13.883 10.6399 13.5 10.8629 13.117C11.0859 12.734 11.3089 12.3511 11.5637 11.9681L11.8186 11.5851C12.2645 10.9149 12.7105 10.2128 13.2202 9.60639C13.7936 8.90426 14.4945 8.32979 15.1634 7.75532L15.2271 7.69149C15.6731 7.30851 16.0235 6.8617 16.4058 6.4149C16.4377 6.35107 16.5014 6.31915 16.5332 6.25532L16.4058 6.15958C16.374 6.22341 16.3102 6.28724 16.2784 6.31915C15.928 6.76596 15.5776 7.21277 15.1316 7.59575L15.0679 7.65958C14.3989 8.23404 13.6981 8.84043 13.1246 9.54256C12.615 10.1489 12.169 10.8511 11.723 11.5213L11.4681 11.9043C11.2133 12.2872 10.9903 12.6702 10.7673 13.0532C10.5443 13.4362 10.3213 13.8192 10.0665 14.2021C9.33379 15.2553 8.79224 16.4681 8.28254 17.5851C7.74099 18.734 7.26315 19.883 6.88088 20.9681C6.84903 21.0319 6.81717 21.0957 6.81717 21.1596L6.97645 21Z" fill="#9E4514"/>
<path d="M6.11633 10.7234C6.33932 10.9787 6.65788 11.0745 7.00829 11.0745C7.51799 11.0745 8.12325 10.8191 8.85594 10.3404C10.7992 9.03191 12.4238 6.92553 13.6343 4.08511C13.6662 3.98936 13.7299 3.8617 13.7618 3.76596L13.6343 3.67021C13.5706 3.79787 13.5388 3.92553 13.4751 4.02128C12.2645 6.8617 10.6717 8.93617 8.76037 10.2128C7.5817 10.9787 6.75344 11.1064 6.24375 10.5957C5.57477 9.92553 5.79777 8.61702 6.02076 7.65957C6.40303 6.12766 7.13572 4.7234 8.15511 3.12766C8.18696 3.09574 8.18696 3.06383 8.21882 3.03191L7.96397 3.15957C6.97644 4.7234 6.24375 6.12766 5.86148 7.65957C5.63849 8.61702 5.41549 10.0213 6.11633 10.7234Z" fill="#9E4514"/>
<path d="M4.33241 17.9043C4.61912 17.3936 4.96953 16.9149 5.3518 16.4681C5.60665 16.1489 5.8615 15.8298 6.08449 15.4787L6.11635 15.4149C6.33934 15.0638 6.56233 14.7128 6.84904 14.4255C6.97646 14.2979 7.13574 14.1702 7.29502 14.0426C7.42244 13.9468 7.54987 13.8511 7.67729 13.7234C7.93214 13.4681 8.2507 13.2447 8.5374 13.0213C8.72854 12.8617 8.95153 12.734 9.14266 12.5426C9.68422 12.0957 10.1939 11.5213 10.608 11.0426C11.054 10.5 11.4681 9.89361 11.8504 9.31915C12.2645 8.68085 12.6787 8.04255 13.1884 7.46808C13.8573 6.70212 14.4308 5.84042 14.9723 5.01064C15.0042 4.94681 15.036 4.91489 15.0679 4.85106L14.9086 4.78723C14.8767 4.85106 14.8449 4.91489 14.7812 4.94681C14.2396 5.77659 13.6662 6.6383 13.0291 7.37234C12.5513 7.94681 12.1053 8.61702 11.723 9.25532C11.3407 9.82978 10.9585 10.4362 10.5125 10.9787C10.0983 11.4574 9.6205 12.0319 9.07895 12.4787C8.88782 12.6383 8.66482 12.7979 8.47369 12.9574C8.18699 13.1808 7.86843 13.4043 7.58172 13.6596C7.4543 13.7553 7.35873 13.8511 7.23131 13.9468C7.07203 14.0745 6.91275 14.2021 6.78532 14.3617C6.49862 14.6808 6.27563 15.0319 6.02078 15.383L5.98892 15.4468C5.76593 15.7979 5.51108 16.117 5.25624 16.4043C4.90582 16.8511 4.52355 17.3298 4.23685 17.8723C4.17313 18 4.07757 18.1277 4.01385 18.2872L4.10942 18.4149C4.17313 18.2234 4.2687 18.0638 4.33241 17.9043Z" fill="#9E4514"/>
<path d="M12.2964 3.31915C11.7548 4.30851 11.1814 5.3617 10.5443 6.28724C10.162 6.8617 9.3975 7.34043 8.72853 7.14894C8.53739 7.08511 8.40997 6.98936 8.37811 6.82979C8.15512 6.15958 9.14266 4.62766 9.55678 4.11702C9.68421 3.95745 9.77977 3.82979 9.9072 3.67021C10.2576 3.22341 10.608 2.7766 10.9266 2.29787C10.9584 2.23404 10.9903 2.17021 11.054 2.10638L10.7992 2.20213C10.7992 2.20213 10.7992 2.20213 10.7992 2.23404C10.4806 2.71277 10.1302 3.15958 9.77978 3.60638C9.65235 3.76596 9.55678 3.89362 9.42936 4.05319C9.36565 4.11702 7.93213 6 8.21883 6.92553C8.28254 7.14894 8.44182 7.2766 8.69667 7.34043C8.79224 7.37234 8.91966 7.37234 9.01523 7.37234C9.65235 7.37234 10.3213 6.92553 10.6717 6.4149C11.3407 5.48936 11.9141 4.43617 12.4557 3.44681C12.5512 3.25532 12.6468 3.09575 12.7424 2.90426L12.615 2.80851C12.4875 2.93617 12.392 3.12766 12.2964 3.31915Z" fill="#9E4514"/>
<path d="M23 10.0532L22.9681 10.0213L23 10.0532Z" fill="white"/>
<path d="M5.98892 24.5426L15.2909 19.7553L21.8532 8.17022L21.7895 8.04256L15.2272 19.6277L5.98892 24.4149L0.0318604 17.0106L0.159284 17.266L5.98892 24.5426Z" fill="white"/>
<defs>
<linearGradient id="paint0_linear_117_527" x1="1.17868" y1="28.0851" x2="21.8213" y2="28.0851" gradientUnits="userSpaceOnUse">
<stop stop-color="#3C266A"/>
<stop offset="1" stop-color="#3C266A" stop-opacity="0"/>
</linearGradient>
</defs>
</svg>
