<svg width="23" height="30" viewBox="0 0 23 30" fill="none" xmlns="http://www.w3.org/2000/svg">
<g clip-path="url(#clip0_117_561)">
<path d="M11.5 30C17.2003 30 21.8213 29.1427 21.8213 28.0851C21.8213 27.0275 17.2003 26.1702 11.5 26.1702C5.7997 26.1702 1.17868 27.0275 1.17868 28.0851C1.17868 29.1427 5.7997 30 11.5 30Z" fill="url(#paint0_linear_117_561)"/>
<g clip-path="url(#clip1_117_561)">
<path d="M22.1446 12.7747C22.1446 12.1423 22.0496 11.6364 22.0179 11.3518C21.9229 10.6561 21.6694 9.64427 21.416 9.04348C21.0992 8.28458 21.0675 8.22134 20.719 7.55731C20.6873 7.49407 20.4339 7.05138 20.022 6.48221C18.3113 4.11067 16.0937 3.03557 14.9215 2.59288C13.4325 2.05533 12.197 1.96047 11.9752 1.92885C11.2149 1.89723 10.9298 1.89723 9.97935 1.96047C9.75759 1.99209 9.0923 2.05533 8.42701 2.21344C8.01516 2.3083 6.74794 2.6245 5.354 3.47826C4.08679 4.23715 3.2631 5.05929 2.78789 5.62846C1.71075 6.83004 1.17219 8.06324 0.982104 8.44269C0.760341 8.85375 0.570258 9.3913 0.443537 9.80237C0.316815 10.3083 0.158413 11.004 0.0950518 11.5099C-0.126711 13.0277 0.0950518 14.3873 0.0950518 14.3873C0.158413 14.8617 0.285134 15.5257 0.443537 15.9684C0.538578 16.2846 0.69698 16.7273 0.823702 17.0435C0.918743 17.2648 1.04546 17.5494 1.14051 17.7391C1.36227 18.2134 1.90084 19.2885 3.00965 20.4585C3.29478 20.7431 4.15015 21.6601 5.63913 22.5138C7.06475 23.336 8.39533 23.6206 8.90221 23.7154C9.2507 23.7787 9.47246 23.8103 10.0744 23.8735C10.2645 23.9051 10.5179 23.9051 10.7397 23.9051C11.1832 23.9368 11.6267 23.9051 12.1019 23.8735C12.4504 23.8419 13.1474 23.747 13.6226 23.6205C14.4146 23.4308 14.6364 23.336 15.3017 23.083C15.6501 22.9565 16.0937 22.7352 16.4422 22.5455C16.8857 22.2925 17.4243 21.913 17.8361 21.6285C18.2163 21.3123 18.6915 20.9012 19.04 20.5534C19.3568 20.2372 19.7369 19.7628 20.022 19.3834C20.3389 18.9723 20.6873 18.3399 20.9408 17.8972C21.1309 17.581 21.3209 17.1067 21.4477 16.7589C21.5744 16.4743 21.9546 15.4308 22.0813 14.0711C22.0813 13.9447 22.1446 13.3755 22.1446 12.7747Z" fill="url(#paint1_radial_117_561)"/>
<path d="M3.07302 16.4111C2.9463 16.5692 2.53446 16.7273 1.55236 15.2411C0.506907 13.5652 1.1722 11.7945 2.05925 12.0158C3.48487 12.3953 3.51655 15.8735 3.07302 16.4111ZM9.56751 19.6047C9.56751 19.6047 8.9339 20.6482 7.1598 19.8577C6.71627 19.6364 5.41738 19.004 5.19561 18.3715C5.03721 17.8972 5.63914 17.2964 6.27275 17.0435C8.11021 16.3478 10.1378 18.087 9.59919 19.4466C9.59919 19.5099 9.59919 19.5731 9.56751 19.6047ZM11.6901 20.2372C12.9573 18.1502 11.3733 13.1542 7.69837 10.3083C2.59782 6.92491 -0.538548 10.4348 0.443546 14.4506C0.665309 15.336 0.665309 16.2846 1.10884 17.1383C1.1722 17.2332 1.6474 18.1502 2.05925 17.6443C2.09093 17.6127 2.12261 17.5494 2.15429 17.4862C2.21765 17.581 2.31269 17.6443 2.37605 17.7391C2.24933 19.5731 4.11848 20.9961 4.75209 20.3636C4.87881 20.2372 4.94217 20.0474 4.97385 19.921C5.06889 19.9842 5.19561 20.0474 5.29065 20.1107C5.51242 21.5652 7.38156 22.5771 8.42702 21.4387C9.25071 21.5652 10.7397 21.7866 11.6901 20.2372Z" fill="#FDC816"/>
<path d="M7.66669 2.49803C7.41325 3.16206 7.1598 3.82609 6.90636 4.49013C6.27275 6.16602 7.1598 8.34783 9.37743 9.96048C12.3237 12.1107 16.4739 12.4901 18.6598 10.8142C19.1984 10.4032 19.5469 9.89724 19.7686 9.35969C19.832 9.23321 19.8637 9.10673 19.927 8.94862C20.0221 8.69566 20.1171 8.41107 20.2438 8.15811C20.3389 7.90515 20.4339 7.62056 20.5606 7.3676L7.66669 2.49803Z" fill="url(#paint2_radial_117_561)"/>
<path d="M10.1377 8.12649C13.084 10.2767 17.2342 10.6561 19.4201 8.98024C19.8003 8.69566 20.0854 8.37945 20.3072 8C20.3705 7.77866 20.4656 7.58894 20.5289 7.36759L18.6281 6.64032C18.5964 6.67194 18.5647 6.70356 18.5014 6.73518C16.8857 8 13.781 7.71542 11.595 6.10277C10.4229 5.24902 9.75758 4.20554 9.63086 3.2253L7.73003 2.52965C7.00138 4.23716 7.85675 6.4506 10.1377 8.12649Z" fill="#8C0802"/>
<path d="M18.4063 2.1502C18.1846 1.9921 17.9945 1.80237 17.7727 1.64427C19.7369 3.2253 20.0854 5.40712 18.5331 6.6087C16.9174 7.87352 13.8127 7.58894 11.6267 5.97629C9.44078 4.39526 8.96558 2.08696 10.613 0.822138C11.3416 0.252968 12.4187 3.35136e-06 13.5276 0.0316239C13.2424 0.0316239 12.989 3.35043e-06 12.7039 3.35043e-06C11.1832 -0.0632378 9.78927 0.284588 8.77549 1.04348C6.58954 2.71937 7.19147 5.81819 10.1378 7.96838C13.084 10.1186 17.2342 10.498 19.4201 8.82214C21.511 7.20949 21.0358 4.3004 18.4063 2.1502Z" fill="url(#paint3_radial_117_561)"/>
<path d="M18.4063 6.60871C16.7906 7.87353 13.686 7.58894 11.5 5.97629C9.31406 4.39527 8.83885 2.08697 10.4862 0.822144C12.1019 -0.442678 15.2066 -0.158093 17.3926 1.45456C19.5785 3.03558 20.022 5.34388 18.4063 6.60871Z" fill="#FF685C"/>
<path d="M18.5331 6.60871C16.9174 7.87353 13.8127 7.58894 11.6267 5.97629C9.4408 4.39527 8.96559 2.08697 10.613 0.822144C12.2287 -0.442678 15.3334 -0.158093 17.5193 1.45456C19.7053 3.03558 20.1488 5.34388 18.5331 6.60871Z" fill="#E4291B"/>
<path d="M16.6006 5.18577C15.7769 5.81819 14.1929 5.6917 13.0524 4.86957C11.9436 4.04743 11.6901 2.87747 12.5138 2.24506C13.3375 1.61265 14.9215 1.73913 16.062 2.56127C17.2025 3.35178 17.4243 4.55336 16.6006 5.18577Z" fill="#630502"/>
<path d="M12.3871 2.9091C13.2107 2.27669 14.7948 2.40317 15.9353 3.2253C16.5689 3.66799 16.9174 4.23716 16.949 4.77471C17.2975 4.11068 16.9807 3.19368 16.062 2.52965C14.9532 1.70752 13.3691 1.58104 12.5138 2.21345C12.1653 2.52965 12.0069 2.9091 12.0386 3.32017C12.1336 3.19368 12.2286 3.03558 12.3871 2.9091Z" fill="#8C0802"/>
<path d="M12.5455 4.33201C12.5455 4.33201 12.5455 4.36363 12.5455 4.39525C12.6722 4.55336 12.8623 4.71146 13.0524 4.86956C13.686 5.34387 14.478 5.56521 15.2066 5.59683C15.9986 4.83794 18.248 3.19367 22.5882 3.8577L23 1.07509C15.7135 -0.0316245 12.6722 4.14229 12.5455 4.33201Z" fill="#B56118"/>
<path d="M12.5455 4.33202C12.5455 4.33202 12.5455 4.36364 12.5455 4.39526C12.6722 4.55336 12.8623 4.71146 13.0524 4.86957C13.686 5.34388 14.478 5.56522 15.2066 5.59684C15.3967 5.43874 15.6502 5.21739 15.967 4.99605C15.3017 4.96443 14.573 4.71146 13.9711 4.26878C13.6543 4.04743 13.4325 3.79447 13.2424 3.5415C12.7989 3.95257 12.5772 4.26878 12.5455 4.33202Z" fill="#A13615"/>
<path opacity="0.3" d="M4.24519 11.2253C4.15015 12.8696 3.32646 14.1976 2.37604 14.1344C1.42563 14.1028 0.728662 12.7115 0.792022 11.0672C0.887064 9.42294 1.71076 8.09487 2.66117 8.15811C3.64326 8.18973 4.34023 9.58104 4.24519 11.2253Z" fill="white"/>
<path opacity="0.3" d="M5.5124 7.083C4.84711 7.58893 4.02342 7.58893 3.64326 7.11462C3.26309 6.64031 3.51654 5.81818 4.18183 5.31225C4.84711 4.80632 5.67081 4.80632 6.05097 5.28063C6.39946 5.75494 6.17769 6.57707 5.5124 7.083Z" fill="white"/>
</g>
</g>
<defs>
<linearGradient id="paint0_linear_117_561" x1="1.17868" y1="28.0851" x2="21.8213" y2="28.0851" gradientUnits="userSpaceOnUse">
<stop stop-color="#3C266A"/>
<stop offset="1" stop-color="#3C266A" stop-opacity="0"/>
</linearGradient>
<radialGradient id="paint1_radial_117_561" cx="0" cy="0" r="1" gradientUnits="userSpaceOnUse" gradientTransform="translate(5.54108 9.14656) scale(16.3967 16.3658)">
<stop stop-color="#F0675C"/>
<stop offset="0.3871" stop-color="#E82B1C"/>
<stop offset="1" stop-color="#990902"/>
</radialGradient>
<radialGradient id="paint2_radial_117_561" cx="0" cy="0" r="1" gradientUnits="userSpaceOnUse" gradientTransform="translate(9.18422 1.66322) scale(11.5551 11.5332)">
<stop stop-color="#F0675C"/>
<stop offset="0.3871" stop-color="#E82B1C"/>
<stop offset="1" stop-color="#990902"/>
</radialGradient>
<radialGradient id="paint3_radial_117_561" cx="0" cy="0" r="1" gradientUnits="userSpaceOnUse" gradientTransform="translate(8.81478 3.16547) scale(12.5788 12.555)">
<stop stop-color="#F0675C"/>
<stop offset="0.3871" stop-color="#E82B1C"/>
<stop offset="1" stop-color="#990902"/>
</radialGradient>
<clipPath id="clip0_117_561">
<rect width="23" height="30" fill="white"/>
</clipPath>
<clipPath id="clip1_117_561">
<rect width="23" height="24" fill="white"/>
</clipPath>
</defs>
</svg>
