<svg width="11" height="12" viewBox="0 0 11 12" fill="none" xmlns="http://www.w3.org/2000/svg">
<g clip-path="url(#clip0_117_783)">
<path d="M6.55958 6.00233L2.4445 1.88707C2.33119 1.77403 2.26886 1.62289 2.26886 1.46174C2.26886 1.3005 2.33119 1.14945 2.4445 1.03623L2.80509 0.675821C2.91822 0.562423 3.06945 0.5 3.2306 0.5C3.39176 0.5 3.5428 0.562423 3.65602 0.675821L8.55567 5.57538C8.66934 5.68896 8.73158 5.84072 8.73114 6.00206C8.73158 6.16411 8.66943 6.31569 8.55567 6.42936L3.66058 11.3242C3.54737 11.4376 3.39632 11.5 3.23507 11.5C3.07392 11.5 2.92287 11.4376 2.80956 11.3242L2.44906 10.9638C2.21449 10.7292 2.21449 10.3473 2.44906 10.1128L6.55958 6.00233Z" fill="#B8A3E4"/>
</g>
<defs>
<clipPath id="clip0_117_783">
<rect width="11" height="11" fill="white" transform="matrix(-1 0 0 1 11 0.5)"/>
</clipPath>
</defs>
</svg>
