<svg width="23" height="30" viewBox="0 0 23 30" fill="none" xmlns="http://www.w3.org/2000/svg">
<path d="M11.5 30C17.2003 30 21.8213 29.1427 21.8213 28.0851C21.8213 27.0275 17.2003 26.1702 11.5 26.1702C5.7997 26.1702 1.17868 27.0275 1.17868 28.0851C1.17868 29.1427 5.7997 30 11.5 30Z" fill="url(#paint0_linear_117_587)"/>
<g clip-path="url(#clip0_117_587)">
<path d="M7.9084 1.14465L5.94711 1.38994L13.351 2.37107L15.3123 2.12579L7.9084 1.14465Z" fill="url(#paint1_linear_117_587)"/>
<path d="M13.351 2.37106L15.3123 2.12578L21 9.53878L19.0387 9.78406L13.351 2.37106Z" fill="white"/>
<path d="M12.1006 25.7275C11.1935 25.8365 11.0464 25.8637 10.1393 25.9727C13.4 25.5912 15.6555 22.457 16.1703 20.4947C16.8322 17.9874 18.9161 10.1929 19.0387 9.78406L21 9.53877C20.9019 9.94758 18.7935 17.7421 18.1316 20.2495C17.6168 22.2117 15.3613 25.3459 12.1006 25.7275Z" fill="url(#paint2_linear_117_587)"/>
<path d="M13.351 2.37106L19.0387 9.78405C18.9407 10.1929 16.8323 17.9874 16.1703 20.4947C15.5084 23.0021 12.0026 27.4444 7.1484 25.5639C2.85808 21.5576 2.41679 14.5807 3.07873 12.1006C3.76518 9.59328 5.84905 1.79873 5.94711 1.38992L13.351 2.37106Z" fill="url(#paint3_linear_117_587)"/>
<path d="M12.9097 4.55136L17.2981 10.2746L14.8465 19.4591C14.5032 20.7128 11.9536 24.7191 7.88388 23.3291C4.37807 19.8679 4.40259 14.2264 4.7213 13L7.17291 3.81551L12.9097 4.55136Z" fill="white"/>
<path d="M12.7626 4.63311L17.151 10.3564L14.6994 19.5409C14.3561 20.7673 11.8065 24.7736 7.73678 23.3836C4.23097 19.9224 4.25549 14.2809 4.5742 13.0545L7.02581 3.87001L12.7626 4.63311Z" fill="url(#paint4_linear_117_587)"/>
<path d="M8.03097 23.2201C4.52517 19.7589 4.54968 14.1174 4.86839 12.891L7.27097 3.89726L7.02581 3.87001L4.5742 13.0545C4.25549 14.2809 4.23097 19.9224 7.73678 23.3836C9.45291 23.956 10.8748 23.6017 12.0026 22.8658C10.9239 23.4927 9.60001 23.7379 8.03097 23.2201Z" fill="#878787"/>
<path d="M10.8013 8.47588L8.37421 6.92242L7.4426 10.3836L8.27614 12.4004L11.12 10.0566L10.8013 8.47588Z" fill="white"/>
<path d="M12.9832 15.7799L12.3213 16.1887L12.2723 15.9161L10.0413 16.6792L10.311 17.3061L9.62451 17.6876L9.91871 18.6687L10.9974 18.0692L11.6103 19.5681L11.5613 20.3312L11.6594 20.7128L13.0813 19.8952L12.9832 19.5409L12.5419 19.0503L12.2232 17.3606L13.2774 16.761L12.9832 15.7799Z" fill="white"/>
<path d="M15.0181 11.174L12.5665 9.62054L8.00646 13.4088L7.68775 12.4004L7.05033 12.7547L7.51614 14.3627L6.53549 15.1803L5.99614 15.044L5.75098 15.1803L6.3884 17.3333L6.63356 17.1971L6.95227 16.5702L8.08001 16.1887L8.54582 17.7966L9.20775 17.4151L8.88904 16.4067L14.0865 14.6352L15.0181 11.174Z" fill="white"/>
<path d="M10.6787 8.44863L8.25161 6.89517L7.34451 10.3564L8.15355 12.3732L10.9974 10.0566L10.6787 8.44863Z" fill="#757575"/>
<path d="M12.8852 15.7799L12.1987 16.1614L12.1497 15.9161L9.94323 16.652L10.1884 17.2788L9.52646 17.6604L9.82065 18.6415L10.8748 18.0419L11.5123 19.5409L11.4387 20.304L11.5368 20.6855L12.9832 19.8679L12.8607 19.5136L12.4194 19.023L12.1007 17.3333L13.1794 16.7337L12.8852 15.7799Z" fill="#757575"/>
<path d="M14.8955 11.1468L12.4684 9.59329L7.88387 13.3816L7.58968 12.3732L6.92774 12.7275L7.39355 14.3354L6.4129 15.1803L5.87355 15.0168L5.62839 15.153L6.26581 17.3061L6.51097 17.1698L6.82968 16.543L7.95742 16.1887L8.42323 17.7694L9.08516 17.3878L8.79097 16.3795L13.9639 14.608L14.8955 11.1468Z" fill="#757575"/>
<path d="M3.07871 12.1006C2.88258 12.8365 2.78452 13.9266 2.85807 15.2348L7.12387 25.5094L7.14839 25.5367C9.20775 26.327 10.9974 26 12.4684 25.1551L4.64775 6.32285C4.03484 8.53039 3.39742 10.9015 3.07871 12.1006Z" fill="url(#paint5_linear_117_587)"/>
<path d="M11.4878 2.12578L7.17291 1.55345L15.6065 21.8847C15.8761 21.3941 16.0723 20.9308 16.1703 20.4948C16.4155 19.5681 16.8568 17.9329 17.3226 16.1887L11.4878 2.12578Z" fill="url(#paint6_linear_117_587)"/>
<g style="mix-blend-mode:screen">
<path d="M2.98065 14.3626C1.82839 14.0355 1.65678 10.5471 2.58839 6.59529C3.52 2.64351 5.21162 -0.299891 6.33936 0.0271533C7.49161 0.354197 7.66323 3.84267 6.73161 7.79445C5.82452 11.7462 4.13291 14.6896 2.98065 14.3626Z" fill="url(#paint7_radial_117_587)"/>
</g>
</g>
<defs>
<linearGradient id="paint0_linear_117_587" x1="1.17868" y1="28.0851" x2="21.8213" y2="28.0851" gradientUnits="userSpaceOnUse">
<stop stop-color="#3C266A"/>
<stop offset="1" stop-color="#3C266A" stop-opacity="0"/>
</linearGradient>
<linearGradient id="paint1_linear_117_587" x1="7.8163" y1="-4.72576" x2="11.1655" y2="1.51698" gradientUnits="userSpaceOnUse">
<stop stop-color="#858585"/>
<stop offset="1" stop-color="#D9D9D9"/>
</linearGradient>
<linearGradient id="paint2_linear_117_587" x1="30.2408" y1="24.8199" x2="16.3399" y2="19.4101" gradientUnits="userSpaceOnUse">
<stop stop-color="#858585"/>
<stop offset="1" stop-color="#D9D9D9"/>
</linearGradient>
<linearGradient id="paint3_linear_117_587" x1="10.913" y1="0.973623" x2="10.9797" y2="26.3575" gradientUnits="userSpaceOnUse">
<stop stop-color="white"/>
<stop offset="1" stop-color="#D9D9D9"/>
</linearGradient>
<linearGradient id="paint4_linear_117_587" x1="5.75455" y1="6.96802" x2="20.1757" y2="24.5736" gradientUnits="userSpaceOnUse">
<stop stop-color="#858585"/>
<stop offset="1" stop-color="#D9D9D9"/>
</linearGradient>
<linearGradient id="paint5_linear_117_587" x1="-0.00718139" y1="19.0389" x2="9.19079" y2="16.2148" gradientUnits="userSpaceOnUse">
<stop stop-color="#FFFDEE"/>
<stop offset="1" stop-color="#FFFDEE" stop-opacity="0"/>
</linearGradient>
<linearGradient id="paint6_linear_117_587" x1="8.39149" y1="13.9476" x2="14.3008" y2="10.3866" gradientUnits="userSpaceOnUse">
<stop stop-color="#FFFDEE"/>
<stop offset="1" stop-color="#FFFDEE" stop-opacity="0"/>
</linearGradient>
<radialGradient id="paint7_radial_117_587" cx="0" cy="0" r="1" gradientUnits="userSpaceOnUse" gradientTransform="translate(4.66638 7.19733) rotate(103.161) scale(7.36152 2.15602)">
<stop stop-color="#C0D7FF"/>
<stop offset="0.00559646" stop-color="#C9DCFC"/>
<stop offset="0.0199808" stop-color="#DBE5F7"/>
<stop offset="0.0373323" stop-color="#E8ECF4"/>
<stop offset="0.0604488" stop-color="#EFF0F2"/>
<stop offset="0.1129" stop-color="#F1F1F1"/>
<stop offset="0.1659" stop-color="#CDCDCD"/>
<stop offset="0.2457" stop-color="#9D9D9D"/>
<stop offset="0.3302" stop-color="#737373"/>
<stop offset="0.418" stop-color="#4F4F4F"/>
<stop offset="0.5101" stop-color="#333333"/>
<stop offset="0.6078" stop-color="#1C1C1C"/>
<stop offset="0.7138" stop-color="#0C0C0C"/>
<stop offset="0.8341" stop-color="#030303"/>
<stop offset="1"/>
</radialGradient>
<clipPath id="clip0_117_587">
<rect width="19" height="26" fill="white" transform="translate(2)"/>
</clipPath>
</defs>
</svg>
