<svg width="23" height="30" viewBox="0 0 23 30" fill="none" xmlns="http://www.w3.org/2000/svg">
<path d="M11.5 30C17.2003 30 21.8213 29.1427 21.8213 28.0851C21.8213 27.0276 17.2003 26.1702 11.5 26.1702C5.7997 26.1702 1.17868 27.0276 1.17868 28.0851C1.17868 29.1427 5.7997 30 11.5 30Z" fill="url(#paint0_linear_117_618)"/>
<g clip-path="url(#clip0_117_618)">
<path d="M20.3416 4.80945C20.2891 4.70433 20.2628 4.57292 20.2102 4.4678C20.1577 4.36267 20.1051 4.23127 20.0263 4.12614C19.6846 7.70039 15.2957 3.52167 14.5861 2.33902C14.113 1.55058 13.9028 1.1038 13.7976 0.578179C13.6137 0.551898 13.4034 0.499336 13.2194 0.473054C13.0092 0.446773 12.8252 0.420492 12.615 0.394211C11.8003 3.60052 5.72929 3.96846 4.67805 2.65439C4.49408 2.39158 4.49408 2.39158 4.33639 1.70827C4.23127 1.76083 4.12614 1.8134 4.02102 1.86596C3.96845 1.89224 3.91589 1.91852 3.86333 1.97108C3.70564 2.04993 3.57423 2.15505 3.41655 2.26018C3.28514 3.10118 3.23258 3.44283 2.62811 4.78317L1.05124 8.22601C1.05124 9.75032 1.05124 11.5374 1.05124 13.0618C1.05124 11.59 2.04992 10.1183 3.99473 9.01445C7.85807 6.85939 14.0342 6.91195 17.7661 9.14585C19.6058 10.2497 20.5256 11.6688 20.5256 13.088C20.5256 11.5637 20.5256 9.7766 20.5256 8.27857C20.5256 7.1222 20.3942 5.96583 20.3416 4.80945Z" fill="url(#paint1_linear_117_618)"/>
<path d="M20.5256 12.7727C20.5256 11.3535 19.6058 9.93431 17.7661 8.8305C14.0079 6.57032 7.85807 6.51775 3.99473 8.67281C2.04992 9.77662 1.05124 11.2221 1.05124 12.6938C1.05124 12.8252 1.05124 12.9567 1.05124 13.0618C1.05124 11.59 2.04992 10.1183 3.99473 9.04075C7.85807 6.88569 14.0342 6.93825 17.7661 9.17216C19.6058 10.276 20.5256 11.6952 20.5256 13.1143C20.5256 11.59 20.5256 9.75034 20.5256 8.22603V8.19975C20.5256 9.6715 20.5256 11.3535 20.5256 12.7727Z" fill="white"/>
<path d="M20.5256 12.8252C20.5256 11.4061 19.6058 9.98687 17.7661 8.88306C14.0079 6.64916 7.83179 6.57032 3.99473 8.75166C2.04992 9.82919 1.05124 11.3009 1.05124 12.7464C1.05124 12.8778 1.05124 13.0092 1.05124 13.1143C1.05124 11.6426 2.04992 10.1708 3.99473 9.09331C7.85807 6.93825 14.0342 6.99082 17.7661 9.22472C19.6058 10.3285 20.5256 11.7477 20.5256 13.1669C20.5256 11.6426 20.5256 9.80291 20.5256 8.2786V8.25231C20.5256 9.72406 20.5256 11.4323 20.5256 12.8252Z" fill="#C95400"/>
<path d="M12.431 0.946121C12.3522 1.07753 12.2733 1.18265 12.1682 1.31406C11.2221 2.68068 9.14585 3.31143 7.38501 3.36399C6.88567 3.39027 6.38633 3.39027 5.93954 3.33771C7.93692 3.73193 11.4586 3.0749 12.431 0.946121Z" fill="white"/>
<path d="M1.05124 8.30486L2.60183 4.83574C3.2063 3.4954 3.25886 3.15374 3.39027 2.31274C3.25886 3.10118 3.2063 3.46912 2.60183 4.73062L1.05124 8.22602C1.05124 8.2523 1.05124 8.27858 1.05124 8.30486Z" fill="white"/>
<path d="M14.5598 2.31275C14.113 1.57688 13.9028 1.10381 13.7714 0.630753L13.7451 0.657034C13.8502 1.18266 14.0867 1.62944 14.5335 2.41787C14.9803 3.15375 16.7937 4.99343 18.2129 5.49278C18.502 5.5979 18.8174 5.57162 19.0802 5.51906C17.6873 5.75559 15.1117 3.20631 14.5598 2.31275Z" fill="white"/>
<path d="M20 10.565C19.8423 10.7753 18.6071 11.7477 18.2129 9.61892C18.0815 9.72405 17.9238 9.80289 17.7661 9.90802C17.7135 9.9343 17.6347 9.98686 17.5821 10.0131C17.477 10.0657 17.3719 10.1445 17.2405 10.1971C17.1616 10.6702 17.0302 11.3535 16.5309 12.1156C14.6386 15.0066 9.80288 15.138 8.96188 11.5112C8.75163 11.4849 8.56766 11.4586 8.35741 11.4323C8.14716 11.406 7.9632 11.3798 7.77923 11.3272C7.59526 12.0631 7.59526 12.0631 7.35873 12.3522C6.17607 13.8765 1.97108 13.7188 1.57686 7.72668C1.49802 7.62155 1.44546 7.49015 1.39289 7.38502C1.34033 7.2799 1.28777 7.14849 1.26149 7.04337C1.23521 7.46386 1.20893 8.04205 1.05124 8.22602C1.05124 9.75033 1.05124 11.2746 1.05124 12.7727C1.05124 14.1919 1.97108 15.611 3.81077 16.7149C7.56898 18.9488 13.7451 19.0276 17.5821 16.8463C19.5532 15.7424 20.5256 14.2707 20.5256 12.8252C20.5256 11.3009 20.5256 9.80289 20.5256 8.27858C20.5256 9.69777 20.2365 10.2497 20 10.565Z" fill="#BFBFBF"/>
<path d="M19.0276 10.2234C18.8699 10.3285 18.7122 10.4336 18.5545 10.5388C18.4757 10.5913 18.4231 10.6176 18.3443 10.6702C18.2129 10.749 18.1078 10.8016 17.9763 10.8804L17.2668 10.2234C17.3719 10.1708 17.5033 10.1183 17.6084 10.0394C17.6873 10.0131 17.7398 9.96058 17.7924 9.9343C17.9501 9.85545 18.0815 9.75033 18.2392 9.6452L19.0276 10.2234Z" fill="#FFE605"/>
<path d="M17.9501 10.8279C17.8449 11.3535 17.7135 12.1156 17.1616 12.9304C15.1117 16.163 9.72405 16.2944 8.77792 12.2733L8.96189 11.4586C9.82917 15.0854 14.6912 14.9803 16.5572 12.0894C17.0565 11.3272 17.1616 10.6702 17.2668 10.1708L17.9501 10.8279Z" fill="url(#paint2_linear_117_618)"/>
<path d="M7.49014 12.0893C7.70039 12.1419 7.93692 12.1682 8.14717 12.1945C8.35742 12.2208 8.59395 12.247 8.8042 12.2733L8.98817 11.4586C8.77792 11.4323 8.59395 11.406 8.3837 11.3798C8.17345 11.3535 7.98949 11.3272 7.80552 11.2746L7.49014 12.0893Z" fill="#FFE605"/>
<path d="M1.05125 8.22601L2.60184 4.75689C3.20631 3.41655 3.25887 3.07489 3.39028 2.2339L2.60184 2.04993C2.47043 2.96977 2.39159 3.36399 1.73456 4.83573L0 8.67279L1.05125 8.22601Z" fill="url(#paint3_linear_117_618)"/>
<path d="M0.236542 7.38502L1.26151 7.04337L1.57688 7.72668L0.578198 8.14718C0.578198 8.14718 0.367948 7.85808 0.236542 7.38502Z" fill="#FFE605"/>
<path d="M7.38502 12.3259C6.17608 13.8765 1.97109 13.7188 1.57687 7.72668L0.578186 8.14718C1.02497 14.77 5.70302 14.954 7.01708 13.2457C7.25361 12.9304 7.27989 12.9041 7.43758 12.2733C7.4113 12.2733 7.4113 12.2996 7.38502 12.3259Z" fill="url(#paint4_linear_117_618)"/>
<path d="M21.3666 4.88829L20.3417 4.80945C20.3942 5.96582 20.5256 7.14848 20.5256 8.30485C20.5256 9.69775 20.2103 10.2497 20 10.565C19.9212 10.6702 19.5795 10.9593 19.2379 10.9593C19.7898 12.2996 20.841 11.4849 20.9987 11.2746C21.2615 10.933 21.5769 10.3285 21.5769 8.77791C21.5769 7.46385 21.4192 6.17607 21.3666 4.88829Z" fill="url(#paint5_linear_117_618)"/>
<path d="M21.2089 4.52038C21.1564 4.38897 21.0775 4.25757 20.9987 4.15244L20 4.12616C20.0788 4.23128 20.1314 4.36269 20.184 4.46782C20.2365 4.57294 20.2891 4.70435 20.3154 4.80947L21.3403 4.88831C21.3403 4.75691 21.2878 4.6255 21.2089 4.52038Z" fill="#FFE605"/>
<path d="M14.9803 2.12878C14.4284 1.28779 14.2181 0.762162 14.0867 0.183975L13.7714 0.551912C13.8765 1.07754 14.113 1.52432 14.5598 2.31275C15.1117 3.2326 17.7924 5.887 19.1853 5.49278C17.5296 4.94087 15.2957 2.62813 14.9803 2.12878Z" fill="url(#paint6_linear_117_618)"/>
<path d="M13.7713 0.551905C13.5874 0.525624 13.3771 0.473062 13.1932 0.446781C12.9829 0.420499 12.7989 0.394218 12.5887 0.367937L12.7727 0C12.9829 0.0262812 13.2194 0.0525624 13.4297 0.0788436C13.6399 0.105125 13.8765 0.157687 14.0867 0.183968L13.7713 0.551905Z" fill="#FFE605"/>
<path d="M5.93954 3.25887C7.93692 3.65309 11.4586 2.99606 12.431 0.867279C11.2483 2.78581 8.06832 3.46912 5.93954 3.25887Z" fill="url(#paint7_linear_117_618)"/>
<path d="M3.39028 2.2339C3.52168 2.12878 3.67937 2.04993 3.83706 1.94481C3.88962 1.91853 3.94218 1.89225 3.99475 1.83968C4.09987 1.78712 4.205 1.73456 4.31012 1.682L3.60053 1.44547C3.4954 1.49803 3.364 1.57687 3.25887 1.62943C3.20631 1.65571 3.12747 1.70828 3.0749 1.73456C2.91722 1.83968 2.73325 1.94481 2.57556 2.04993L3.39028 2.2339Z" fill="#FFE605"/>
<path d="M20.9987 11.2746C20.8147 11.5112 19.4744 12.5624 19.0276 10.2234C18.8699 10.3285 18.7122 10.4336 18.5545 10.5388C18.4757 10.5913 18.4231 10.6176 18.3443 10.6702C18.2129 10.749 18.1078 10.8016 17.9763 10.8804C17.8712 11.406 17.7398 12.1682 17.1879 12.9829C15.1117 16.1629 9.72405 16.2943 8.77792 12.2733C8.56767 12.247 8.33114 12.2208 8.12089 12.1945C7.91064 12.1682 7.67411 12.1156 7.46386 12.0893C7.25361 12.9041 7.25361 12.9041 7.01708 13.2194C5.70302 14.9277 1.02497 14.77 0.578187 8.14716C0.499343 8.01576 0.446781 7.88435 0.367937 7.77923C0.315374 7.64782 0.262812 7.51642 0.21025 7.38501C0.183968 7.85807 0.131406 8.48882 0 8.69907C0 10.3811 0 12.0631 0 13.7451C0 15.3219 0.998686 16.8988 3.04862 18.1077C7.20105 20.6045 14.0342 20.657 18.318 18.2654C20.4993 17.0565 21.5769 15.4271 21.5769 13.7976C21.5769 12.1156 21.5769 10.4599 21.5769 8.77791C21.5769 10.3022 21.2615 10.933 20.9987 11.2746Z" fill="url(#paint8_linear_117_618)"/>
<path d="M17.1879 13.0618C17.7398 12.2208 17.8712 11.4849 17.9763 10.933L17.9501 10.9067C17.8449 11.4323 17.7135 12.1419 17.1879 12.9304C15.1117 16.1367 9.77661 16.2944 8.8042 12.3259L8.77792 12.3785C9.72405 16.3995 15.1117 16.2681 17.1879 13.0618Z" fill="white"/>
<path d="M21.6032 8.83047C21.5769 10.3285 21.2615 10.933 21.025 11.2483C20.8673 11.4586 19.8686 12.247 19.3167 11.0381C19.2904 11.0381 19.2904 11.0381 19.2641 11.0381C19.816 12.3784 20.8673 11.5637 21.025 11.3535C21.2878 11.0118 21.6032 10.4073 21.6032 8.85676C21.6032 8.85676 21.6032 8.85676 21.6032 8.83047Z" fill="white"/>
<path d="M0.578186 8.22601C1.02497 14.8489 5.67674 15.0328 7.01708 13.3246C7.25361 13.0092 7.27989 12.9829 7.43758 12.3522C7.43758 12.3784 7.4113 12.3784 7.38502 12.4047C7.25361 12.8778 7.22733 12.9303 7.01708 13.2194C5.70302 14.9277 1.07753 14.77 0.578186 8.22601Z" fill="white"/>
<path d="M21.6032 11.9842C21.6032 13.6137 20.4993 15.2431 18.3443 16.452C14.0604 18.8436 7.22733 18.7911 3.0749 16.2944C1.02497 15.0854 0 13.5085 0 11.9317V12.5099C0 14.0867 0.998686 15.6636 3.04862 16.8725C7.20105 19.3693 14.0342 19.4218 18.318 17.0302C20.4993 15.8213 21.5769 14.1919 21.5769 12.5624V11.9842H21.6032Z" fill="white"/>
<path d="M21.6032 12.0894C21.6032 13.7188 20.4993 15.3482 18.3443 16.5572C14.0604 18.9488 7.22733 18.8962 3.0749 16.3995C1.02497 15.1905 0 13.6137 0 12.0368V12.615C0 14.1919 0.998686 15.7687 3.04862 16.9777C7.20105 19.4744 14.0342 19.5269 18.318 17.1354C20.4993 15.9264 21.5769 14.297 21.5769 12.6676V12.0894H21.6032Z" fill="white"/>
<path d="M21.6032 12.0631C21.6032 13.6925 20.4993 15.3219 18.3443 16.5309C14.0604 18.9225 7.22733 18.8699 3.0749 16.3732C1.02497 15.1642 0 13.5611 0 12.0105V12.5887C0 14.1656 0.998686 15.7424 3.04862 16.9514C7.20105 19.4481 14.0342 19.5006 18.318 17.1091C20.4993 15.9001 21.5769 14.2707 21.5769 12.6412V12.0631H21.6032Z" fill="#FD7701"/>
<path d="M18.318 16.9777C14.0342 19.3693 7.20105 19.3167 3.04862 16.82C1.02497 15.6111 0 14.0342 0 12.4573V12.5887C0 14.1656 0.998686 15.7425 3.04862 16.9514C7.20105 19.4481 14.0342 19.5007 18.318 17.1091C20.4993 15.9001 21.5769 14.2707 21.5769 12.6413V12.5099C21.5769 14.1393 20.4993 15.7687 18.318 16.9777Z" fill="#C95400"/>
</g>
<defs>
<linearGradient id="paint0_linear_117_618" x1="1.17868" y1="28.0851" x2="21.8213" y2="28.0851" gradientUnits="userSpaceOnUse">
<stop stop-color="#3C266A"/>
<stop offset="1" stop-color="#3C266A" stop-opacity="0"/>
</linearGradient>
<linearGradient id="paint1_linear_117_618" x1="1.0377" y1="6.74725" x2="20.5427" y2="6.74725" gradientUnits="userSpaceOnUse">
<stop stop-color="#FF8205"/>
<stop offset="0.1684" stop-color="#FFAB05"/>
<stop offset="0.2581" stop-color="#FFBB05"/>
<stop offset="0.3948" stop-color="#FFB204"/>
<stop offset="0.6212" stop-color="#FE9803"/>
<stop offset="0.9077" stop-color="#FC7001"/>
<stop offset="1" stop-color="#FC6100"/>
</linearGradient>
<linearGradient id="paint2_linear_117_618" x1="9.09982" y1="13.7635" x2="17.1791" y2="12.3069" gradientUnits="userSpaceOnUse">
<stop stop-color="#FF8205"/>
<stop offset="0.1614" stop-color="#FFAB05"/>
<stop offset="0.2473" stop-color="#FFBB05"/>
<stop offset="0.3421" stop-color="#FFC405"/>
<stop offset="0.4987" stop-color="#FFDD05"/>
<stop offset="0.5645" stop-color="#FFEA05"/>
<stop offset="0.6358" stop-color="#FFDA05"/>
<stop offset="0.7443" stop-color="#FFC905"/>
<stop offset="0.8611" stop-color="#FFBE05"/>
<stop offset="1" stop-color="#FFBB05"/>
</linearGradient>
<linearGradient id="paint3_linear_117_618" x1="2.73693" y1="2.93849" x2="0.974113" y2="7.68835" gradientUnits="userSpaceOnUse">
<stop stop-color="#FF8205"/>
<stop offset="0.1684" stop-color="#FFAB05"/>
<stop offset="0.2581" stop-color="#FFBB05"/>
<stop offset="0.3948" stop-color="#FFB204"/>
<stop offset="0.6212" stop-color="#FE9803"/>
<stop offset="0.9077" stop-color="#FC7001"/>
<stop offset="1" stop-color="#FC6100"/>
</linearGradient>
<linearGradient id="paint4_linear_117_618" x1="1.17177" y1="9.0358" x2="6.10468" y2="13.7976" gradientUnits="userSpaceOnUse">
<stop stop-color="#FF8205"/>
<stop offset="0.1614" stop-color="#FFAB05"/>
<stop offset="0.2473" stop-color="#FFBB05"/>
<stop offset="0.3421" stop-color="#FFC405"/>
<stop offset="0.4987" stop-color="#FFDD05"/>
<stop offset="0.5645" stop-color="#FFEA05"/>
<stop offset="0.6358" stop-color="#FFDA05"/>
<stop offset="0.7443" stop-color="#FFC905"/>
<stop offset="0.8611" stop-color="#FFBE05"/>
<stop offset="1" stop-color="#FFBB05"/>
</linearGradient>
<linearGradient id="paint5_linear_117_618" x1="20.1441" y1="11.2931" x2="21.3069" y2="5.49068" gradientUnits="userSpaceOnUse">
<stop stop-color="#FF8205"/>
<stop offset="0.1614" stop-color="#FFAB05"/>
<stop offset="0.2473" stop-color="#FFBB05"/>
<stop offset="0.3421" stop-color="#FFC405"/>
<stop offset="0.4987" stop-color="#FFDD05"/>
<stop offset="0.5645" stop-color="#FFEA05"/>
<stop offset="0.6358" stop-color="#FFDA05"/>
<stop offset="0.7443" stop-color="#FFC905"/>
<stop offset="0.8611" stop-color="#FFBE05"/>
<stop offset="1" stop-color="#FFBB05"/>
</linearGradient>
<linearGradient id="paint6_linear_117_618" x1="14.4623" y1="1.55338" x2="19.1508" y2="5.58082" gradientUnits="userSpaceOnUse">
<stop stop-color="#FF8205"/>
<stop offset="0.1614" stop-color="#FFAB05"/>
<stop offset="0.2473" stop-color="#FFBB05"/>
<stop offset="0.3421" stop-color="#FFC405"/>
<stop offset="0.4987" stop-color="#FFDD05"/>
<stop offset="0.5645" stop-color="#FFEA05"/>
<stop offset="0.6358" stop-color="#FFDA05"/>
<stop offset="0.7443" stop-color="#FFC905"/>
<stop offset="0.8611" stop-color="#FFBE05"/>
<stop offset="1" stop-color="#FFBB05"/>
</linearGradient>
<linearGradient id="paint7_linear_117_618" x1="5.17526" y1="2.83561" x2="10.9412" y2="1.97858" gradientUnits="userSpaceOnUse">
<stop stop-color="#FF8205"/>
<stop offset="0.1684" stop-color="#FFAB05"/>
<stop offset="0.2581" stop-color="#FFBB05"/>
<stop offset="0.3948" stop-color="#FFB204"/>
<stop offset="0.6212" stop-color="#FE9803"/>
<stop offset="0.9077" stop-color="#FC7001"/>
<stop offset="1" stop-color="#FC6100"/>
</linearGradient>
<linearGradient id="paint8_linear_117_618" x1="-0.062523" y1="13.6885" x2="21.4879" y2="13.6885" gradientUnits="userSpaceOnUse">
<stop stop-color="#FF8205"/>
<stop offset="0.1614" stop-color="#FFAB05"/>
<stop offset="0.2473" stop-color="#FFBB05"/>
<stop offset="0.3421" stop-color="#FFC405"/>
<stop offset="0.4987" stop-color="#FFDD05"/>
<stop offset="0.5645" stop-color="#FFEA05"/>
<stop offset="0.6358" stop-color="#FFDA05"/>
<stop offset="0.7443" stop-color="#FFC905"/>
<stop offset="0.8611" stop-color="#FFBE05"/>
<stop offset="1" stop-color="#FFBB05"/>
</linearGradient>
<clipPath id="clip0_117_618">
<rect width="21.6032" height="20" fill="white"/>
</clipPath>
</defs>
</svg>
